<?xml version="1.0" encoding="utf-8"?>
<!-- Generator: Adobe Illustrator 24.0.2, SVG Export Plug-In . SVG Version: 6.00 Build 0)  -->
<svg version="1.1" id="Layer_1" xmlns="http://www.w3.org/2000/svg" xmlns:xlink="http://www.w3.org/1999/xlink" x="0px" y="0px"
	 viewBox="0 0 154 281" style="enable-background:new 0 0 154 281;" xml:space="preserve">
<style type="text/css">
	.st0{fill:#303136;}
	.st1{fill:#414149;}
	.st2{fill:#D38957;}
	.st3{fill:#A86B42;}
	.st4{opacity:0.46;}
	.st5{opacity:0.5;fill:#F2604C;}
	.st6{fill:#F6BA8F;}
	.st7{fill:#FFFFFF;}
	.st8{fill:#58321C;}
	.st9{fill:#D4D4D4;}
	.st10{fill:#E9DCBF;}
	.st11{fill:#D63D3D;}
	.st12{fill:#E38170;}
</style>
<g>
	<g>
		<path class="st0" d="M151.06,137.66c-2.07-8.67-4.31-17.43-7-25.93c-2.34-7.38-1.26-12.1,0.05-19.8
			c3.03-17.76,1.72-35.99-4.88-52.76c-6.08-15.47-10.48-21.41-25.66-28.88C80.06-6.18,22.81,6.11,8.47,43.52
			c-6.4,16.69-0.32,34.58,1.52,51.6c1.8,16.59,1.11,34.29-2.95,50.51c-3.23,12.9-6.34,27.06,7.03,35.46
			c5.77,3.62,11.49,5.44,17.36,0.71c4.42,12.36,18.79,4.21,24.72-2.42c4.15,3.87,9.41,8.93,15.2,9.64
			c6.64,0.81,9.89-4.88,14.45-4.88c4.68,0,7.78,5.27,13.78,4.38c4.74-0.71,10.28-6.3,13.84-9.12c7.23,9.27,19.92,3.89,25.38-4.28
			C158,179.22,156.1,158.74,151.06,137.66z"/>
	</g>
	<g>
		<path class="st1" d="M138.33,168.1c8.12-5.28-0.41-15.02-0.81-21.52c-5.28,9.34-10.15,18.27-4.87,28.83
			c-11.77-2.03-13.4-18.68-13.8-28.42c-4.47,3.25-8.12,12.59-4.47,18.27c-6.9-8.53-11.37-15.02-10.15-26.8
			c1.22-10.56,3.65-19.49,3.65-30.45c7.71,10.96,13.4,19.49,17.46,32.48c4.87-12.99-0.81-24.77,0.41-37.76
			c3.65,4.47,6.9,11.37,8.53,17.46c0-5.28,0-10.96,0.81-15.83C134.57,107.45,160.71,177.59,138.33,168.1z"/>
	</g>
	<g>
		<path class="st1" d="M24.25,172.16c-11.81,2.08-11.24-15.13-10-22.32c2.6-15.04,11.63-28.24,11.63-43.86
			c0.81,10.56,4.06,21.52,4.47,32.48c6.09,0.41,8.12-7.71,11.37-11.77c1.22,10.56-12.99,48.72,8.53,49.13
			c-7.71,16.24-21.92-12.18-23.14-18.68c-3.65,3.25-4.06,10.56-0.81,14.62c-6.9,2.03-12.99-4.87-13.4-11.37"/>
	</g>
	<g>
		<g>
			<path class="st2" d="M1.77,89.11c5.29-7.82,14.06-4.02,18.35,2.39c3.22,4.8,4.63,15.16-2.22,17.69
				c-4.28,1.58-10.63-1.16-13.63-4.27C0.27,100.77-1.74,94.3,1.77,89.11z"/>
		</g>
		<g>
			<path class="st2" d="M149.02,91.76c-5.01-8-13.9-4.52-18.43,1.73c-3.39,4.68-5.17,14.99,1.58,17.75
				c4.22,1.73,10.67-0.78,13.77-3.77C150.1,103.45,152.34,97.06,149.02,91.76z"/>
		</g>
	</g>
	<path class="st2" d="M135.3,34.08c-6.94-14.06-25.91-16.39-39.87-17.94c-22.61-2.51-43.78-4.39-64.94,6.7
		C5.13,36.13,16.93,75.76,16.52,98.42c-0.38,20.98,15.94,27.92,29.52,30.96c13.59,3.04,22.55,5.27,21.76,10.15
		c-0.79,4.88-4.67,18.49,6.17,18.69c0.11,0,0.21,0,0.32,0c0.11,0,0.21,0.01,0.32,0.01c10.84,0.19,7.9-13.73,6.41-18.7
		c-1.42-4.74,8.61-6.57,22.3-9.13c12.62-2.35,27.19-9.31,30.33-23.13c1.71-5.46,1.96-18.96,1.96-18.96
		c0.93-15.77,6.45-37.67,0.39-52.65C135.79,35.12,135.55,34.59,135.3,34.08z"/>
	<g>
		<path class="st3" d="M77.64,101.4c-0.85,0.44-1.78,0.77-2.76,0.8c-1.08,0.03-2-0.41-2.96-0.82c-1.21-0.51-2.8-1.28-1.8-2.87
			c0.6-0.95,1.78-0.71,2.69-0.45c1,0.28,2.25,0.64,3.29,0.42c1.03-0.22,2.02-0.91,3.09-0.96c1.37-0.06,1.53,1.77,0.82,2.59
			c-0.6,0.69-1.53,0.85-2.3,1.25C77.69,101.38,77.66,101.39,77.64,101.4z"/>
	</g>
	<g class="st4">
		<path class="st5" d="M50.29,102.57c1.12-4.8-3.81-10.05-11-11.72c-7.19-1.67-13.92,0.87-15.04,5.68c-1.12,4.8,3.81,10.05,11,11.72
			C42.44,109.91,49.17,107.37,50.29,102.57z"/>
		
			<ellipse transform="matrix(0.2262 -0.9741 0.9741 0.2262 -67.3786 114.9006)" class="st5" cx="38.63" cy="99.86" rx="6.62" ry="13.36"/>
		<path class="st5" d="M49.57,102.4c1.2-5.18-4.11-10.85-11.86-12.65c-7.76-1.8-15.02,0.94-16.22,6.12
			c-1.2,5.18,4.11,10.85,11.86,12.65C41.1,110.33,48.36,107.58,49.57,102.4z"/>
		<path class="st5" d="M53.3,103.27c1.12-4.8-5.1-10.35-13.89-12.39c-8.79-2.04-16.81,0.2-17.93,5c-1.12,4.8,5.1,10.35,13.89,12.39
			C44.15,110.31,52.18,108.07,53.3,103.27z"/>
	</g>
	<g class="st4">
		<path class="st5" d="M103.06,103.51c-0.94-4.84,4.17-9.91,11.41-11.32c7.24-1.41,13.88,1.37,14.82,6.21
			c0.94,4.84-4.17,9.91-11.41,11.32C110.64,111.14,104.01,108.35,103.06,103.51z"/>
		<path class="st5" d="M101.69,103.78c-0.7-3.59,4.61-7.64,11.85-9.05c7.24-1.41,13.68,0.36,14.38,3.94
			c0.7,3.59-4.61,7.64-11.85,9.05C108.83,109.14,102.39,107.37,101.69,103.78z"/>
		<path class="st5" d="M103.79,103.37c-1.02-5.22,4.49-10.69,12.31-12.21c7.82-1.52,14.98,1.48,15.99,6.7
			c1.02,5.22-4.49,10.69-12.31,12.21C111.97,111.6,104.81,108.6,103.79,103.37z"/>
		<path class="st5" d="M100.03,104.1c-0.94-4.84,5.47-10.16,14.33-11.89c8.85-1.72,16.8,0.8,17.74,5.64
			c0.94,4.84-5.47,10.16-14.33,11.89C108.91,111.47,100.97,108.95,100.03,104.1z"/>
	</g>
	<g>
		<path d="M40.76,95.1c5.13,1.07,6.95-8.23,2.29-9.92C36.78,82.91,35.67,94.04,40.76,95.1z"/>
	</g>
	<g>
		<path d="M107.95,96.36c5.22,0.45,5.92-9,1.09-10.13C102.54,84.73,102.77,95.92,107.95,96.36z"/>
	</g>
	<g>
		<g>
			<path class="st6" d="M58.92,103.27c1.49,4.69,5.95,7.34,10.46,8.64c5.31,1.52,11.38,0.28,16.26-2.07
				c0.28-0.14,0.18-1.07-0.15-0.92c-2.47,1.15-5.05,2.27-7.75,2.73c-2.72,0.47-5.4,0.11-8.04-0.6c-4.36-1.17-8.89-3.61-10.66-7.99
				C58.97,102.88,58.89,103.19,58.92,103.27L58.92,103.27z"/>
		</g>
	</g>
	<g>
		<path class="st0" d="M34.68,67.03c17-7.58,34.59-4.74,52.7-9.71c11.82-3.24,22.62-4.3,28.24-17.37
			c-3.79,8.81,4.3,19.79,8.76,26.54c6.83,10.33,6.05,17.01,8.27,28.59c0.55-1.2,1.78-2.63,2.35-4c-0.16,1.45-0.02,3.21-0.23,4.63
			c5.46-18.44,9.68-32.73,5.93-52.28C132.87,2.59,79.66,2.66,47.92,9.89c-32.53,7.4-50.01,45.62-34.26,75.14
			c4.69-4.67,8.29-10.61,14.36-14.44C30.23,69.2,32.45,68.02,34.68,67.03z"/>
	</g>
	<g>
		<path class="st0" d="M48.2,68.13c-1.76-2.24-4.71-3.36-7.46-2.38c-2.5,0.89-4.45,3.21-4.29,5.96c0.02,0.42,0.49,1.63,0.91,0.73
			c1.06-2.28,1.83-3.83,4.51-4.4c2.16-0.46,4.31,0.18,6.09,1.39C48.43,69.75,48.39,68.36,48.2,68.13L48.2,68.13z"/>
	</g>
	<g>
		<path class="st0" d="M102.4,70.4c1.81-1.12,3.62-1.48,5.73-1.24c2.72,0.31,3.78,2.18,4.68,4.46c0.32,0.81,0.87,0.45,0.94-0.28
			c0.63-6.48-7.86-8.8-11.66-4.22C101.88,69.36,101.91,70.7,102.4,70.4L102.4,70.4z"/>
	</g>
	<g>
		<path class="st2" d="M71.24,216.78c-1.58-4.47-6.14-9.03-10.78-5.83c-6,4.14-4.81,19.67-4.5,26.17
			c0.24,5.09,1.23,10.31,1.95,15.37c0.57,3.98-0.54,10.73,1.86,14.16c1.93,2.75,7.33,3.64,9.93,1.33c3.14-2.79,2.27-7.13,1.95-10.74
			c-0.6-6.9-1.22-13.91-0.75-21.32C71.3,229.54,73.52,223.23,71.24,216.78z"/>
	</g>
	<g>
		<path class="st2" d="M79.93,236.78c-0.07-4.36-0.91-8.57-1.41-12.96c-0.46-4.07,0.51-7.55,3.5-10.62
			c2.31-2.37,6.78-4.46,9.98-2.26c3.69,2.55,3.67,8.35,3.64,12.32c-0.04,4.95,0.34,9.62,0.1,14.56c-0.29,6.19-1.34,12.07-1.68,18.27
			c-0.16,2.9,0.87,7.5-0.83,10.06c-1.98,2.98-7.79,4.21-10.47,1.82c-2.36-2.1-1.65-5.32-1.79-8.23
			C80.6,252.18,80.06,244.29,79.93,236.78z"/>
	</g>
	<g>
		<path class="st7" d="M59.02,260.01c0.12,0.09,0.22,0.17,0.3,0.24c1.05,0.78,1.81,1.01,3.14,1.15c2.22,0.23,4.55-0.25,6.57-1.17
			c1.03-0.47,4.42-3.26,3.86-0.25c-0.17,0.93-0.8,1.7-1.04,2.61c-0.26,0.99,0.04,1.42-0.94,2.08c-1.44,0.98-3.15,1.98-4.86,2.33
			c-2.12,0.43-5.97,0.32-7.62-1.37c-1.01-1.03-0.5-2.5-0.73-3.69c-0.15-0.8-1.77-1.74-0.97-2.61
			C57.33,258.69,58.39,259.5,59.02,260.01z"/>
	</g>
	<g>
		<path class="st8" d="M72.1,261.8c-0.3,2.13-2.84,3-4.63,3.46c-3.06,0.78-9.29,0.77-9.76-3.46c-1.12,1.18-1.88,2.76-2.69,4.16
			c-0.87,1.5-1.72,3.01-2.46,4.57c-0.84,1.77-1.69,3.37-1.45,5.36c0.11,0.92-0.08,2.19,0.48,3c0.43,0.62,1.71,1.13,2.42,1.34
			c3.65,1.07,7.44,1.16,11.21,0.65c1.28-0.17,2.7-0.05,3.78-0.9c0.88-0.68,1.56-1.48,1.98-2.45c1.41-3.3,3.48-8.28,2.43-11.9
			C73.13,264.63,73.15,262.34,72.1,261.8z"/>
	</g>
	<path class="st9" d="M51.19,277.67c0,0,1.07,2.13,7.92,2.23c6.85,0.1,9.47-0.46,10.63-1.65c1.6-1.64,3.66-9.06,3.93-11.55
		c0,0,0.24,2.49,0,3.7c-0.24,1.22-1.66,9.95-4.1,10.91c-2.44,0.96-6.55,1.47-10.3,1.22c-3.76-0.25-7.36-1.47-7.87-2.54
		C50.88,278.94,50.93,277.97,51.19,277.67z"/>
	<g>
		<path class="st7" d="M93.26,260.01c-0.12,0.09-0.22,0.17-0.3,0.24c-1.05,0.78-1.81,1.01-3.14,1.15c-2.22,0.23-4.55-0.25-6.57-1.17
			c-1.03-0.47-4.41-3.26-3.86-0.25c0.17,0.93,0.8,1.7,1.04,2.61c0.26,0.99-0.04,1.42,0.94,2.08c1.44,0.98,3.15,1.98,4.86,2.33
			c2.12,0.43,5.97,0.32,7.62-1.37c1.01-1.03,0.5-2.5,0.73-3.69c0.15-0.8,1.77-1.74,0.97-2.61C94.95,258.69,93.9,259.5,93.26,260.01z
			"/>
	</g>
	<g>
		<path class="st8" d="M80.19,261.94c0.3,2.13,2.84,3,4.63,3.46c3.06,0.78,9.29,0.77,9.76-3.46c1.12,1.18,1.88,2.76,2.69,4.16
			c0.87,1.5,1.72,3.01,2.46,4.57c0.84,1.77,1.69,3.37,1.45,5.36c-0.11,0.92,0.08,2.19-0.48,3c-0.43,0.62-1.71,1.13-2.42,1.34
			c-3.65,1.07-7.44,1.16-11.21,0.65c-1.28-0.17-2.7-0.05-3.78-0.9c-0.88-0.68-1.56-1.48-1.98-2.45c-1.41-3.3-3.48-8.28-2.43-11.9
			C79.16,264.77,79.14,262.48,80.19,261.94z"/>
	</g>
	<path class="st9" d="M101.1,277.67c0,0-1.07,2.13-7.92,2.23c-6.85,0.1-9.47-0.46-10.63-1.65c-1.6-1.64-3.66-9.06-3.93-11.55
		c0,0-0.24,2.49,0,3.7c0.24,1.22,1.66,9.95,4.1,10.91c2.44,0.96,6.55,1.47,10.3,1.22c3.76-0.25,7.36-1.47,7.87-2.54
		C101.4,278.94,101.35,277.97,101.1,277.67z"/>
	<g>
		<path class="st10" d="M56.57,267.63c-0.51,0.25-0.38,2.41,0.18,2.27c1.59-0.42,3.77-0.7,5.8-0.47c-2.04-0.13-4.05,0.05-6.13,1.18
			c-0.31,0.17-0.22,1.47,0.11,1.36c1.89-0.64,3.65-0.69,5.61-0.45c2.07,0.25,3.95,1.19,5.98,1.45c0.87,0.11,0.54-2.19,0.38-2.55
			c-0.34-0.78-0.83-1.4-1.44-1.89c0.81,0.28,1.5,0.72,1.96,1.38c0.61,0.87,1.04-1.88,0.55-2.54
			C66.92,263.82,59.81,266.05,56.57,267.63z"/>
		<path class="st10" d="M95.83,270.61c-1.99-1.09-3.92-1.29-5.88-1.2c1.99-0.2,4.1,0.08,5.65,0.49c0.54,0.14,0.58-2.02,0.07-2.27
			c-3.26-1.6-10.35-3.79-13.02-0.24c-0.5,0.66,0.05,3.41,0.67,2.51c0.44-0.63,1.07-1.05,1.83-1.33c-0.59,0.49-1.08,1.1-1.42,1.88
			c-0.17,0.4-0.35,2.63,0.51,2.53c1.75-0.22,3.36-1.04,5.12-1.33c2.2-0.35,4.22-0.41,6.35,0.31
			C96.16,272.11,96.16,270.79,95.83,270.61z"/>
	</g>
	<g>
		<path class="st2" d="M63.34,142.32c2.46,4.07,2.31,10.24,0.27,14.37c-0.78,1.58-2.33,4.48-4.38,4.61
			c-3.78,0.24-2.44-5.62-1.88-8.78C57.9,149.37,61.87,139.89,63.34,142.32z"/>
	</g>
	<g>
		<path class="st2" d="M85.59,142.22c-2.46,4.07-2.57,10.84-0.54,14.98c0.78,1.58,2.32,4.61,4.38,4.61c3.76,0,2.44-5.62,1.88-8.78
			C90.76,149.88,87.06,139.79,85.59,142.22z"/>
	</g>
	<g>
		<path class="st11" d="M99.9,204.66c-0.25-1.01-0.54-2.01-0.91-3.01c-1.7-4.58-2.7-9.9-3.19-14.75c-0.64-6.37-1.8-12.64-2.56-19.02
			c-0.17-1.43-1.81-9.39-1.16-10.02c-1.15,1.11-2.7,0.94-3.74-0.11c-3.38-3.45-2.81-11.5-1.84-15.82c-1.53-0.51-3.61-1.92-5.23-1.66
			c0.17,1.35,1.02,3.09,0.38,4.43c-0.42,0.86-1.25,1.48-2.07,1.91c-2.74,1.43-5.5,1.83-8.54,1.08c-3.56-0.88-3.94-3.99-3.36-7.46
			c-1.81-0.15-4.01,0.97-5.51,1.91c3.46,4.06,2.24,13.01-1.67,16.37c-1.17,1.01-2.4,1.25-3.83,0.59c0.49,0.23-0.85,15.55-0.88,16.93
			c-0.14,6.23-0.51,12.46-1.61,18.61c-1.57,8.74-0.51,18.39-3.69,26.76c-1.13,2.97-2.35,5.33,1.76,6.76
			c4.24,1.48,9.44-0.64,13.78-0.95c5.23-0.37,10.47-0.62,15.42,1.43c7.28,3.01,14.42-1.35,21.2-4.06c0.91-0.36,1.82-0.72,2.72-1.08
			c-0.58-3.37-2.23-6.32-3.3-9.51C101.05,210.92,100.67,207.76,99.9,204.66z"/>
	</g>
	<g>
		<path class="st2" d="M104.47,169.17c-0.04-0.09-0.08-0.18-0.12-0.26c-2.81-6.15-5.32-12.78-8.93-18.45
			c-0.82-1.28-7.75-10.34-8.46-6.17c-1.34,7.87,2.54,13.59,4.31,18.52c4.08,11.39,13.47,22.68,11.66,35.44
			c-0.24,1.69-0.74,3.65-1.26,5.27c-0.4,1.23-2.51,3.02-1.98,4.43c0.88,2.33,4.1,0.01,4.76-1.26c0.45-0.87,0.68-2.17,1.54-2.77
			c1.01-0.71,1.71,0.58,2.34,1.15c1.11,1.01,2.2,1.99,3.21,3.13c0.63,0.72,1.3,1.56,2.22,1.94c1.07,0.45,2.03-0.38,2.29-1.38
			c0.33-1.26-0.55-2.07-1.39-2.84c-1.11-1.02-2.36-2.06-3.38-3.15c1.55,1.23,3.38,2.33,4.78,3.72c0.87,0.87,1.76,1.82,2.98,0.89
			c0.55-0.42,1.26-1.27,1.01-2.02c-0.3-0.93-1.61-1.72-2.33-2.27c-1.51-1.15-3.09-2.22-4.65-3.29c1.11,0.75,2.57,1.5,3.79,2.05
			c1.27,0.58,3.3,1.96,4.26,0.14c0.74-1.4-0.68-1.86-1.77-2.3c-1.39-0.56-2.99-1.31-4.45-1.6c1.1-0.18,2.25,0.07,3.33-0.13
			c2.73-0.49,0.93-2.72-1.17-2.39c-2.29,0.36-4.17,0.22-6.48,0.17c0.06-2.24,0.03-4.34-0.16-6.59
			C109.81,182.28,107.3,175.4,104.47,169.17z"/>
	</g>
	<g>
		<path class="st2" d="M48.86,183.02c2.69-6.92,6.8-13.21,9.31-20.21c1.77-4.93,5.65-10.65,4.31-18.52
			c-0.71-4.17-7.64,4.89-8.46,6.17c-3.61,5.67-6.12,12.3-8.93,18.45c-0.04,0.09-0.08,0.18-0.12,0.26
			c-2.83,6.23-5.34,13.11-5.92,19.98c-0.17,2.02-0.88,5.75-0.84,8.82c-0.22,0.03-0.43,0.06-0.65,0.1c-2.5,0.44-5.06,1.13-6.98,1.97
			c-0.78,0.34-1.47,0.82-2.23,1.17c-0.44,1.43,0.03,3.01,1.74,2.46c-1.51,1.14-0.97,4.65,1.31,3.49c-0.38,0.19-0.31,1.14-0.17,1.44
			c0.17,0.37,0.52,0.7,0.88,0.88c0.63,0.32,1.65,0.31,2.21-0.17c-0.35,0.81,0.49,1.51,1.19,1.72c0.76,0.23,1.95-0.14,2.54-0.65
			c1.9-1.63,3.33-5.7,6.49-4.4c1.87,0.76,2.48,3.67,4.96,2.64c3.01-1.25-1.22-4.08-2.49-4.95c0.36,0.25,0.3-3.69-0.06-4.24
			c-0.17-0.27-0.38-0.49-0.59-0.69c-0.25-1.67-0.49-3.33-0.23-5.1C46.65,190,47.52,186.46,48.86,183.02z"/>
	</g>
	<g>
		<path class="st1" d="M92.49,13.38C77.41,8.6,59.53,11.71,45.28,17.8c-6.97,2.98-12.86,6.89-18.38,12.06
			c-3.06,2.87-6.19,5.88-8.65,9.3c-2.1,2.93-3.07,8.69-5.32,11.02c5.85-6.02,17.1-11.14,25.49-11.16
			c-10.38,6.96-23.49,13.8-27.5,26.68c4.92-5.26,12.69-9.89,19.78-11.27c-4.84,5.38-9.98,9.83-13,16.83
			c7.36-5.66,14.67-9.87,23.35-13.24c18.73-7.29,42.88-2.98,57.9-18.68c-10.56,3.25-20.71-2.84-31.26-1.22
			c1.81-0.28,6.98-5.86,9.27-7.01c3.73-1.87,7.84-2.93,11.59-4.74c-6.35-2.15-16.51-4.51-22.83-0.9
			C72.68,18.74,83.2,13.28,92.49,13.38z"/>
	</g>
	<g>
		<path class="st1" d="M136.71,72.69c-2.63-4.6-9.36-5.01-12.21-11.05c-3.33-7.04-5.09-15.27-4.84-23.06
			c2.03,2.84,4.06,6.09,6.9,8.93c0-8.93-3.25-16.65-7.31-24.36c10.56,8.93,14.62,21.92,17.05,34.92c-2.03-1.62-4.06-3.25-6.5-4.06
			C129.81,60.51,133.46,67.01,136.71,72.69z"/>
	</g>
	<path class="st11" d="M16.04,87.22c0,0-22.75-39.62,12.62-63.61s74.06-15.92,87.4-7.37c13.34,8.55,28.51,26.02,20.92,71.89
		c0,0,19.87-41.84-10.91-69.24C95.3-8.51,50.35,1.37,24.31,18.76C-1.73,36.15,1.75,70.5,16.04,87.22z"/>
	<g>
		<path class="st12" d="M102.48,9.27c5.83-3.68,17.54,7.47,19.09,10.05c4.67-3.49,2.7-20.27-0.68-18.72
			C114.3,3.63,108.43,5.52,102.48,9.27z"/>
	</g>
	<g>
		<path class="st12" d="M139.68,37.98c0.84-6.84-13.06-12.81-15.81-13.14c1.13-5.7,15.98-10.92,15.98-7.2
			C139.85,24.88,140.53,31.01,139.68,37.98z"/>
	</g>
	<g>
		<path class="st12" d="M118.95,13.86c-3.65,2.14-5.68,5.14-3.53,9.09c0.59,1.08,7.6,7.53,8.36,7.11c3.76-2.06,9.77-4.33,6.76-9.45
			C128.13,16.52,123.3,10.97,118.95,13.86z"/>
	</g>
	<circle class="st7" cx="43.25" cy="88.66" r="1.61"/>
	<circle class="st7" cx="109.48" cy="89.57" r="1.61"/>
</g>
</svg>
