<?xml version="1.0" encoding="utf-8"?>
<!-- Generator: Adobe Illustrator 24.0.2, SVG Export Plug-In . SVG Version: 6.00 Build 0)  -->
<svg version="1.1" id="Layer_1" xmlns="http://www.w3.org/2000/svg" xmlns:xlink="http://www.w3.org/1999/xlink" x="0px" y="0px"
	 viewBox="0 0 223 122.11" style="enable-background:new 0 0 223 122.11;" xml:space="preserve">
<style type="text/css">
	.st0{fill:#FFFFFF;}
</style>
<g>
	<circle class="st0" cx="41" cy="29" r="29"/>
	<path class="st0" d="M81,106.5c0,0.05,0,0.1,0,0.15C80.98,114.61,74.38,121,66.42,121H14.58C6.62,121,0.02,114.61,0,106.65
		c0-0.05,0-0.1,0-0.15C0,79.71,18.13,58,40.5,58S81,79.71,81,106.5z"/>
	<path class="st0" d="M120,122.11h-15c-6.6,0-12-5.4-12-12v-15c0-6.6,5.4-12,12-12h15c6.6,0,12,5.4,12,12v15
		C132,116.71,126.6,122.11,120,122.11z"/>
	<path class="st0" d="M165.5,122.11h-15c-6.6,0-12-5.4-12-12v-15c0-6.6,5.4-12,12-12h15c6.6,0,12,5.4,12,12v15
		C177.5,116.71,172.1,122.11,165.5,122.11z"/>
	<path class="st0" d="M211,122.11h-15c-6.6,0-12-5.4-12-12v-15c0-6.6,5.4-12,12-12h15c6.6,0,12,5.4,12,12v15
		C223,116.71,217.6,122.11,211,122.11z"/>
	<path class="st0" d="M211,26H105c-6.6,0-12-5.4-12-12v-2c0-6.6,5.4-12,12-12h106c6.6,0,12,5.4,12,12v2C223,20.6,217.6,26,211,26z"
		/>
	<path class="st0" d="M119.57,77.69h-15c-6.6,0-12-5.4-12-12v-15c0-6.6,5.4-12,12-12h15c6.6,0,12,5.4,12,12v15
		C131.57,72.29,126.17,77.69,119.57,77.69z"/>
	<path class="st0" d="M165.07,77.69h-15c-6.6,0-12-5.4-12-12v-15c0-6.6,5.4-12,12-12h15c6.6,0,12,5.4,12,12v15
		C177.07,72.29,171.67,77.69,165.07,77.69z"/>
	<path class="st0" d="M210.57,77.69h-15c-6.6,0-12-5.4-12-12v-15c0-6.6,5.4-12,12-12h15c6.6,0,12,5.4,12,12v15
		C222.57,72.29,217.17,77.69,210.57,77.69z"/>
</g>
</svg>
