<?xml version="1.0" encoding="utf-8"?>
<!-- Generator: Adobe Illustrator 24.0.2, SVG Export Plug-In . SVG Version: 6.00 Build 0)  -->
<svg version="1.1" id="Layer_1" xmlns="http://www.w3.org/2000/svg" xmlns:xlink="http://www.w3.org/1999/xlink" x="0px" y="0px"
	 viewBox="0 0 402.22 403.94" style="enable-background:new 0 0 402.22 403.94;" xml:space="preserve">
<style type="text/css">
	.st0{fill:url(#SVGID_1_);}
	.st1{fill:#313237;}
	.st2{fill:none;stroke:#313237;stroke-width:18;stroke-linecap:round;stroke-miterlimit:10;}
</style>
<radialGradient id="SVGID_1_" cx="201.1085" cy="201.9716" r="201.5405" gradientUnits="userSpaceOnUse">
	<stop  offset="0" style="stop-color:#FFFFFF"/>
	<stop  offset="0.0503" style="stop-color:#F5F9F3"/>
	<stop  offset="0.1726" style="stop-color:#DEEDD9"/>
	<stop  offset="0.3026" style="stop-color:#CBE3C1"/>
	<stop  offset="0.4408" style="stop-color:#BADAAF"/>
	<stop  offset="0.5911" style="stop-color:#AED4A2"/>
	<stop  offset="0.7622" style="stop-color:#A7D09A"/>
	<stop  offset="1" style="stop-color:#A4CF98"/>
</radialGradient>
<path class="st0" d="M361.77,403.94H40.45C18.11,403.94,0,385.83,0,363.49V40.45C0,18.11,18.11,0,40.45,0h321.32
	c22.34,0,40.45,18.11,40.45,40.45v323.05C402.22,385.83,384.11,403.94,361.77,403.94z"/>
<path class="st1" d="M149.87,151.65c39.26-1.24,76.93,18.65,95.26,47.64c4.61,7.29,14.89,23.55,9.2,38.11
	c-6.32,16.19-28.78,21.01-42.18,23.88c-44.28,9.49-70.85-8.52-78.37,2.54c-6.43,9.45,5.66,33.37,23.42,46.27
	c24.98,18.15,52.12,7.96,56.01,18.65c3.7,10.17-16.29,31.89-40.16,38.74c-36.03,10.34-75.55-14.75-96.3-40.44
	c-27.45-33.98-41.03-92.53-10.2-134.85C93.77,154.85,139.67,151.98,149.87,151.65z"/>
<g>
	<path class="st2" d="M284.72,274.83c-3.15,0.72-39.41,9.32-40.57,26.15c-0.14,2.06,0.19,4.91,5.33,13.77
		c4.77,8.23,12.75,14.02,24.05,25.19"/>
	<path class="st2" d="M337.4,328.82c-9.68-5.9-21.73-12.21-36.08-17.63c-18.98-7.17-36.21-10.62-49.85-12.31"/>
</g>
</svg>
