<?xml version="1.0" encoding="utf-8"?>
<!-- Generator: Adobe Illustrator 22.0.1, SVG Export Plug-In . SVG Version: 6.00 Build 0)  -->
<svg version="1.1" id="Lag_1" xmlns="http://www.w3.org/2000/svg" xmlns:xlink="http://www.w3.org/1999/xlink" x="0px" y="0px"
	 viewBox="0 0 100 100" style="enable-background:new 0 0 100 100;" xml:space="preserve">
<style type="text/css">
	.st0{fill:#8DC12C;}
	.st1{fill:#F7D23D;}
	.st2{fill:#DC9922;}
</style>
<g>
	<g>
		<path class="st0" d="M45.8,44.8c-2.8-10.2-1.2-23.2,5.9-31.6c1.9-2.2,6.2-5.6,9.3-3.7c5,2.5-0.3,5.3-2.5,8
			c-4.3,5.6-7.7,12.4-8.4,19.5c-0.3,2.5,0,6.8,0.3,8.4L45.8,44.8z"/>
	</g>
	<g>
		<path class="st1" d="M39.6,86.9c-6.2,10.2-10.5-7.7-11.8-12.7C26,68,7.7,34.6,24.1,37.1c4,0.6,6.8,4.6,8.7,7.7
			c-0.3-4.6,0.3-10.2,6.2-11.5c6.2-1.5,7.9,6.7,8.2,11.6c-0.3-5,7.6-13.8,13.2-13.8c6.2,0,5.9,8.4,5.9,13c2.8-5.3,12.7-9.3,14.9-1.5
			c1.9,6.2-4,14.6-6.5,19.8c-2.8,6.5-4,13.3-5.6,20.4c-0.6,3.1-1.2,7.4-5,8.4c-3.7,0.9-6.5-1.9-6.8-5.3c-2.8,6.5-16.1,7.1-17.3,0.3
			L39.6,86.9z"/>
	</g>
	<g>
		<path class="st2" d="M33.5,51.1l1.7,6.6c0.6,2.2,1.1,4.4,1.6,6.7c0.5,2.2,0.9,4.5,1.2,6.8c0.1,1.1,0.3,2.3,0.4,3.4
			c0.1,1.1,0.1,2.3,0.1,3.4c-0.2-1.1-0.4-2.3-0.6-3.4c-0.2-1.1-0.4-2.2-0.6-3.4l-1.4-6.7c-0.5-2.2-1-4.5-1.4-6.7
			C34,55.7,33.7,53.4,33.5,51.1z"/>
	</g>
	<g>
		<path class="st2" d="M48.4,49.9c0.3,2.5,0.6,5.1,0.8,7.6c0.2,2.5,0.3,5.1,0.3,7.6c0,2.5,0,5.1-0.1,7.6l-0.1,1.9
			c0,0.7-0.1,1.3-0.2,1.9c-0.1,0.6-0.2,1.3-0.2,1.9c0,0.3,0,0.6,0,0.9c0,0.2,0,0.3,0.1,0.5c0,0.2,0.2,0.1,0.3,0
			c0,0.1-0.1,0.1-0.2,0.2c-0.1,0.1-0.2,0-0.2-0.1c-0.1-0.2-0.1-0.3-0.1-0.5c0-0.3-0.1-0.6-0.1-1c0-0.6,0-1.3,0-1.9
			c0-0.6,0-1.3,0-1.9l-0.1-1.9c-0.1-2.5-0.1-5.1-0.1-7.6c0-2.5-0.1-5.1-0.1-7.6C48.4,55,48.4,52.5,48.4,49.9z"/>
	</g>
	<g>
		<path class="st2" d="M63.7,49.6c-0.2,2.3-0.6,4.6-1,6.9c-0.4,2.3-1,4.6-1.4,6.8c-0.5,2.3-0.9,4.5-1.3,6.8
			c-0.2,1.1-0.3,2.3-0.4,3.5l-0.1,1.7c0,0.6,0,1.2-0.1,1.7c-0.1-0.6-0.1-1.2-0.2-1.7L59,73.7c0-1.2,0.1-2.3,0.1-3.5
			c0.2-2.3,0.6-4.7,1.1-7c0.5-2.3,1.1-4.6,1.7-6.8L63.7,49.6z"/>
	</g>
</g>
</svg>
