<?xml version="1.0" encoding="utf-8"?>
<!-- Generator: Adobe Illustrator 22.0.1, SVG Export Plug-In . SVG Version: 6.00 Build 0)  -->
<svg version="1.1" id="Lag_1" xmlns="http://www.w3.org/2000/svg" xmlns:xlink="http://www.w3.org/1999/xlink" x="0px" y="0px"
	 viewBox="0 0 100 100" style="enable-background:new 0 0 100 100;" xml:space="preserve">
<style type="text/css">
	.st0{fill:#0B9A4D;}
	.st1{fill:#96E39E;}
	.st2{fill:#B7F8BA;}
</style>
<g>
	<g>
		<path class="st0" d="M61.8,63.1c6.1,4.9,14.8-0.3,11.1-8c8.1-0.8,14.4-11,5.5-16.2c11.8-4.3,1.6-24.8-11.6-15.8
			c-1.3-9.9-16.1-15.3-19.3-3.6c-4.1-9.2-18.6,1.5-15.9,10c-11.9-0.7-22.1,16-9.5,22.5c-9.9,5.4-0.1,23.8,10.9,17.8
			c3.9,5.9,7.9,8.7,15.1,6.7c6.3-1.7,6.8-5.6,9.9-9.1L61.8,63.1z"/>
	</g>
	<g>
		<g>
			<path class="st1" d="M73.9,79.9c-0.5-1.5-1.4-3.1-1.8-4.5c-3.5-8.8-4.6-20.2-2.9-29.4l-7.9,1.1c-1.6,4.5-1.3,10.8-2.9,15.9
				c-2-4.1-3.4-7.8-4.7-12c-2.2,1.1-4.1,2-6.3,3c2.8,3.7,3.8,8.7,4.8,12.9c-3.4-2.8-6.2-7.2-9.7-10.3c-1.7,1.5-3.3,3-5.4,3.6
				c5.5,5.1,10.6,9.5,15,15.8c2.1,3,3.3,6.4,5.1,8.8C60.7,80.6,70.6,76.2,73.9,79.9z"/>
		</g>
		<g>
			<path class="st2" d="M65.5,87.8c2.2-0.4,7.8-2.7,8.6-4.8c0.3-1,0.2-2-0.1-3.1c-3.3-3.7-13.2,0.7-16.7,5.1
				C58.9,87.4,61.2,88.8,65.5,87.8z"/>
		</g>
	</g>
</g>
</svg>
