<?xml version="1.0" encoding="utf-8"?>
<!-- Generator: Adobe Illustrator 22.0.1, SVG Export Plug-In . SVG Version: 6.00 Build 0)  -->
<svg version="1.1" id="Lag_1" xmlns="http://www.w3.org/2000/svg" xmlns:xlink="http://www.w3.org/1999/xlink" x="0px" y="0px"
	 viewBox="0 0 100 100" style="enable-background:new 0 0 100 100;" xml:space="preserve">
<style type="text/css">
	.st0{fill:#3DB73E;}
	.st1{fill:#EF7515;}
	.st2{fill:#BE5A13;}
</style>
<g>
	<g>
		<path class="st0" d="M44.2,47.9c-2.2-1.1-4.7-1.8-7.1-3c-0.7-0.5-4.3-2.3-4.3-3.4c-0.3-1.8,2.1-2.3,3.6-1.7l0,0
			c-3.8-1.8-8.2-3.9-10.3-8.1c-2.7-6.1,2.3-4.3,5.3-1.4c-2.8-2.5-4.4-6.5-5.2-10.1c-0.7-2.5-1.5-11.4,3.1-11.2
			c5.8,0.2,8.5,19.4,9.2,23.7c-0.3-1.8,0.5-10.2,3.6-9.1c2.7,0.9,0.3,10.2-0.1,12.1c2-4.9,5.7-6.4,4.9,0.2c-0.3,3-1.3,7.7-1.7,9.6
			L44.2,47.9z"/>
	</g>
	<g>
		<path class="st1" d="M51.1,40.1c-0.6-0.3-1.2-0.4-1.8-0.6c-5.4-1.1-11.7,4.5-11.2,10.2c0.4,5.5,6.7,10.7,10.2,14.3
			c4.1,4.2,8,8.5,12.1,12.7c3.4,3.4,6.1,7.2,9.2,10.6c0.9,0.9,3.2,4.5,4.7,3.6c3.6-1.7,1.4-6.6,1-7.7C71.8,74.1,64,57.1,64,57.1
			C62.1,51.7,56.9,42.7,51.1,40.1z"/>
	</g>
	<g>
		<path class="st2" d="M67.1,78.6c0.1-0.5,0.3-0.7,0.5-1c0.2-0.2,0.4-0.4,0.6-0.5C68.4,77,68.7,77,69,77c0.3,0.1,0.7,0.2,1,0.5
			c-0.1,0.5-0.3,0.7-0.5,1c-0.2,0.2-0.4,0.4-0.6,0.5c-0.2,0.1-0.5,0.1-0.8,0.1C67.8,79,67.5,78.9,67.1,78.6z"/>
	</g>
	<g>
		<path class="st2" d="M61.3,72.5c0.1-0.7,0.5-1.3,0.9-1.7c0.5-0.5,1-0.8,1.6-1c0.6-0.2,1.2-0.4,1.8-0.4c0.6,0,1.2,0,1.9,0.2
			c-0.4,0.6-0.9,1-1.4,1.3c-0.5,0.3-1,0.6-1.5,0.8c-0.5,0.2-1,0.4-1.5,0.5C62.5,72.2,62,72.3,61.3,72.5z"/>
	</g>
	<g>
		<path class="st2" d="M54.6,64.8c0.3-0.9,0.8-1.6,1.4-2.2c0.6-0.6,1.3-1.1,2.1-1.4c0.8-0.4,1.6-0.6,2.5-0.6c0.9,0,1.8,0.1,2.6,0.5
			l-2.2,1l-2,0.9l-2.1,0.9C56.1,64.2,55.4,64.5,54.6,64.8z"/>
	</g>
	<g>
		<path class="st2" d="M46.3,55.5c0-1.1,0.5-2.2,1.2-3c0.7-0.9,1.6-1.5,2.6-2c1-0.5,2.1-0.8,3.1-0.9c1.1-0.1,2.2,0,3.2,0.5
			c-1,0.4-2,0.7-2.9,1.1c-0.9,0.4-1.8,0.7-2.6,1.1c-0.8,0.4-1.7,0.9-2.4,1.4C47.8,54.2,47.1,54.7,46.3,55.5z"/>
	</g>
</g>
</svg>
