<?xml version="1.0" encoding="utf-8"?>
<!-- Generator: Adobe Illustrator 22.0.1, SVG Export Plug-In . SVG Version: 6.00 Build 0)  -->
<svg version="1.1" id="Lag_1" xmlns="http://www.w3.org/2000/svg" xmlns:xlink="http://www.w3.org/1999/xlink" x="0px" y="0px"
	 viewBox="0 0 100 100" style="enable-background:new 0 0 100 100;" xml:space="preserve">
<style type="text/css">
	.st0{fill:#C5846F;}
	.st1{fill:#D2907A;}
	.st2{fill:#EBA48E;}
</style>
<g>
	<path class="st0" d="M54.4,79.9c-7.7,1.2-16-0.5-22.6-5.2C21.5,67.4,17.3,51.6,21.5,40c2.2-6.1,5.6-11.8,11.2-15.5
		c2.3-1.5,4.9-3,7.7-4.2c7.7-3.4,16.7-5,24.1-1.6c3.5,1.6,6.3,4.6,8.4,7.8c0.5,0.8,1,1.5,1.4,2.3c6.5,11.8,6.5,28.3-1.3,39.6
		C68.5,74.9,61.7,78.7,54.4,79.9z"/>
	<path class="st1" d="M47.1,19.9c0.3-0.1,0.6-0.1,0.9-0.2c0.2,0,0.4,0,0.5-0.1L47.1,19.9z"/>
	<path class="st1" d="M74.7,48.7c-2.4,8.2-8.8,17-17.7,17.8c-10,0.9-19.3-0.3-23.9-10.5c-3.2-7.2-3.5-15.9-0.9-23.3
		c1.3-3.6,4.4-8.7,8.3-12.4c7.7-3.4,16.7-5,24.1-1.6c3.5,1.6,6.3,4.6,8.4,7.8c0.5,0.8,1,1.5,1.4,2.3C76.6,35.1,76.5,42.4,74.7,48.7z
		"/>
	<path class="st2" d="M59.5,31.4c4.5,0.9,8.4-3.2,5.5-7.6c-1.8-2.6-8.4-4.4-10.6-1.2C51.9,26.1,56.3,30.8,59.5,31.4z"/>
</g>
</svg>
