<?xml version="1.0" encoding="utf-8"?>
<!-- Generator: Adobe Illustrator 22.0.1, SVG Export Plug-In . SVG Version: 6.00 Build 0)  -->
<svg version="1.1" id="Lag_1" xmlns="http://www.w3.org/2000/svg" xmlns:xlink="http://www.w3.org/1999/xlink" x="0px" y="0px"
	 viewBox="0 0 100 100" style="enable-background:new 0 0 100 100;" xml:space="preserve">
<style type="text/css">
	.st0{fill:#59AF47;}
	.st1{fill:#3F9444;}
	.st2{fill:#A5D288;}
</style>
<g>
	<g>
		<g>
			<ellipse class="st0" cx="41.2" cy="24.4" rx="10" ry="9.4"/>
			<g>
				<path class="st1" d="M46.5,16.4c1.8,1.6,2.9,3.9,2.9,6.4c0,4.9-4.2,8.8-9.5,8.8c-3.6,0-6.8-1.9-8.4-4.8c1.2,4,5,6.9,9.7,6.9
					c5.5,0,10-4.2,10-9.4C51.3,21,49.4,18,46.5,16.4z"/>
			</g>
		</g>
		<path class="st2" d="M39.5,16.3c-4,0.9-6.7,4.3-6.7,8.4c0,1.7,2.7,1.7,2.7,0c0-2.9,1.9-5.2,4.7-5.8C41.9,18.5,41.2,15.9,39.5,16.3
			z"/>
	</g>
	<g>
		<g>
			<ellipse class="st0" cx="56.8" cy="32.5" rx="10" ry="9.4"/>
			<g>
				<path class="st1" d="M62.1,24.5c1.8,1.6,2.9,3.9,2.9,6.4c0,4.9-4.2,8.8-9.5,8.8c-3.6,0-6.8-1.9-8.4-4.8c1.2,4,5,6.9,9.7,6.9
					c5.5,0,10-4.2,10-9.4C66.8,29.1,64.9,26.2,62.1,24.5z"/>
			</g>
		</g>
		<path class="st2" d="M55,24.4c-4,0.9-6.7,4.3-6.7,8.4c0,1.7,2.7,1.7,2.7,0c0-2.9,1.9-5.2,4.7-5.8C57.4,26.6,56.7,24.1,55,24.4z"/>
	</g>
	<g>
		<g>
			<ellipse class="st0" cx="78" cy="35.1" rx="10" ry="9.4"/>
			<g>
				<path class="st1" d="M83.2,27.2c1.8,1.6,2.9,3.9,2.9,6.4c0,4.9-4.2,8.8-9.5,8.8c-3.6,0-6.8-1.9-8.4-4.8c1.2,4,5,6.9,9.7,6.9
					c5.5,0,10-4.2,10-9.4C88,31.8,86.1,28.8,83.2,27.2z"/>
			</g>
		</g>
		<path class="st2" d="M76.2,27.1c-4,0.9-6.7,4.3-6.7,8.4c0,1.7,2.7,1.7,2.7,0c0-2.9,1.9-5.2,4.7-5.8C78.6,29.2,77.9,26.7,76.2,27.1
			z"/>
	</g>
</g>
<g>
	<g>
		<g>
			<ellipse class="st0" cx="66.4" cy="28.8" rx="10.2" ry="9.5"/>
			<g>
				<path class="st1" d="M71.8,20.7c1.8,1.6,3,3.9,3,6.5c0,4.9-4.3,9-9.6,9c-3.7,0-6.9-2-8.5-4.8c1.2,4,5.1,7,9.8,7
					c5.6,0,10.2-4.3,10.2-9.5C76.6,25.4,74.7,22.4,71.8,20.7z"/>
			</g>
		</g>
		<path class="st2" d="M64.6,20.6c-4,0.9-6.8,4.4-6.8,8.5c0,1.7,2.7,1.7,2.7,0c0-3,1.9-5.3,4.8-5.9C67,22.8,66.3,20.2,64.6,20.6z"/>
	</g>
	<g>
		<g>
			<ellipse class="st0" cx="50.8" cy="45.9" rx="10.2" ry="9.5"/>
			<g>
				<path class="st1" d="M56.1,37.8c1.8,1.6,3,3.9,3,6.5c0,4.9-4.3,9-9.6,9c-3.7,0-6.9-2-8.5-4.8c1.2,4,5.1,7,9.8,7
					c5.6,0,10.2-4.3,10.2-9.5C60.9,42.4,59,39.4,56.1,37.8z"/>
			</g>
		</g>
		<path class="st2" d="M49,37.7c-4,0.9-6.8,4.4-6.8,8.5c0,1.7,2.7,1.7,2.7,0c0-3,1.9-5.3,4.8-5.9C51.4,39.9,50.7,37.3,49,37.7z"/>
	</g>
	<g>
		<g>
			<ellipse class="st0" cx="71.6" cy="50.4" rx="10.2" ry="9.5"/>
			<g>
				<path class="st1" d="M77,42.3c1.8,1.6,3,3.9,3,6.5c0,4.9-4.3,9-9.6,9c-3.7,0-6.9-2-8.5-4.8c1.2,4,5.1,7,9.8,7
					c5.6,0,10.2-4.3,10.2-9.5C81.8,47,79.9,44,77,42.3z"/>
			</g>
		</g>
		<path class="st2" d="M69.9,42.2c-4,0.9-6.8,4.4-6.8,8.5c0,1.7,2.7,1.7,2.7,0c0-3,1.9-5.3,4.8-5.9C72.3,44.4,71.6,41.8,69.9,42.2z"
			/>
	</g>
</g>
<g>
	<g>
		<g>
			<ellipse class="st0" cx="35.4" cy="37.9" rx="10" ry="9.4"/>
			<g>
				<path class="st1" d="M40.7,29.9c1.8,1.6,2.9,3.9,2.9,6.4c0,4.9-4.2,8.8-9.5,8.8c-3.6,0-6.8-1.9-8.4-4.8c1.2,4,5,6.9,9.7,6.9
					c5.5,0,10-4.2,10-9.4C45.5,34.5,43.6,31.6,40.7,29.9z"/>
			</g>
		</g>
		<path class="st2" d="M33.7,29.8c-4,0.9-6.7,4.3-6.7,8.4c0,1.7,2.7,1.7,2.7,0c0-2.9,1.9-5.2,4.7-5.8C36.1,32,35.4,29.5,33.7,29.8z"
			/>
	</g>
	<g>
		<g>
			<ellipse class="st0" cx="20" cy="54.7" rx="10" ry="9.4"/>
			<g>
				<path class="st1" d="M25.3,46.8c1.8,1.6,2.9,3.9,2.9,6.4c0,4.9-4.2,8.8-9.5,8.8c-3.6,0-6.8-1.9-8.4-4.8c1.2,4,5,6.9,9.7,6.9
					c5.5,0,10-4.2,10-9.4C30,51.4,28.1,48.4,25.3,46.8z"/>
			</g>
		</g>
		<path class="st2" d="M18.3,46.7c-4,0.9-6.7,4.3-6.7,8.4c0,1.7,2.7,1.7,2.7,0c0-2.9,1.9-5.2,4.7-5.8C20.6,48.9,19.9,46.3,18.3,46.7
			z"/>
	</g>
	<g>
		<g>
			<ellipse class="st0" cx="41.2" cy="57.4" rx="10" ry="9.4"/>
			<g>
				<path class="st1" d="M46.5,49.4c1.8,1.6,2.9,3.9,2.9,6.4c0,4.9-4.2,8.8-9.5,8.8c-3.6,0-6.8-1.9-8.4-4.8c1.2,4,5,6.9,9.7,6.9
					c5.5,0,10-4.2,10-9.4C51.2,54,49.3,51.1,46.5,49.4z"/>
			</g>
		</g>
		<path class="st2" d="M39.5,49.3c-4,0.9-6.7,4.3-6.7,8.4c0,1.7,2.7,1.7,2.7,0c0-2.9,1.9-5.2,4.7-5.8C41.8,51.5,41.1,48.9,39.5,49.3
			z"/>
	</g>
</g>
<g>
	<g>
		<g>
			<ellipse class="st0" cx="29.6" cy="51" rx="10.2" ry="9.5"/>
			<g>
				<path class="st1" d="M35,42.9c1.8,1.6,3,3.9,3,6.5c0,4.9-4.3,9-9.6,9c-3.7,0-6.9-2-8.5-4.8c1.2,4,5.1,7,9.8,7
					c5.6,0,10.2-4.3,10.2-9.5C39.8,47.6,37.9,44.6,35,42.9z"/>
			</g>
		</g>
		<path class="st2" d="M27.9,42.8c-4,0.9-6.8,4.4-6.8,8.5c0,1.7,2.7,1.7,2.7,0c0-3,1.9-5.3,4.8-5.9C30.3,45.1,29.6,42.5,27.9,42.8z"
			/>
	</g>
	<g>
		<g>
			<ellipse class="st0" cx="59.5" cy="70" rx="10.2" ry="9.5"/>
			<g>
				<path class="st1" d="M64.8,62c1.8,1.6,3,3.9,3,6.5c0,4.9-4.3,9-9.6,9c-3.7,0-6.9-2-8.5-4.8c1.2,4,5.1,7,9.8,7
					c5.6,0,10.2-4.3,10.2-9.5C69.6,66.6,67.7,63.6,64.8,62z"/>
			</g>
		</g>
		<path class="st2" d="M57.7,61.9c-4,0.9-6.8,4.4-6.8,8.5c0,1.7,2.7,1.7,2.7,0c0-3,1.9-5.3,4.8-5.9C60.1,64.1,59.4,61.5,57.7,61.9z"
			/>
	</g>
	<g>
		<g>
			<ellipse class="st0" cx="34.9" cy="72.6" rx="10.2" ry="9.5"/>
			<g>
				<path class="st1" d="M40.2,64.6c1.8,1.6,3,3.9,3,6.5c0,4.9-4.3,9-9.6,9c-3.7,0-6.9-2-8.5-4.8c1.2,4,5.1,7,9.8,7
					c5.6,0,10.2-4.3,10.2-9.5C45.1,69.2,43.1,66.2,40.2,64.6z"/>
			</g>
		</g>
		<path class="st2" d="M33.1,64.5c-4,0.9-6.8,4.4-6.8,8.5c0,1.7,2.7,1.7,2.7,0c0-3,1.9-5.3,4.8-5.9C35.5,66.7,34.8,64.1,33.1,64.5z"
			/>
	</g>
</g>
</svg>
