<?xml version="1.0" encoding="utf-8"?>
<!-- Generator: Adobe Illustrator 22.0.1, SVG Export Plug-In . SVG Version: 6.00 Build 0)  -->
<svg version="1.1" id="Lag_1" xmlns="http://www.w3.org/2000/svg" xmlns:xlink="http://www.w3.org/1999/xlink" x="0px" y="0px"
	 viewBox="0 0 100 100" style="enable-background:new 0 0 100 100;" xml:space="preserve">
<style type="text/css">
	.st0{fill:#C37D46;}
	.st1{fill:#D38D5E;}
	.st2{fill:#CE895B;}
</style>
<g>
	<g>
		<g>
			<path class="st0" d="M35.8,54.4c-4.2,1.4-9.4-1.5-9.2-6.3c3.7,0,8.8,2.3,9.5,6.1L35.8,54.4z"/>
		</g>
		<g>
			<path class="st0" d="M32.5,37.6c-6.5-2.3-9.8-12.7-7.9-18.9c2,0.2,4.4,2.7,5.5,4.2c1.3,1.7,2.1,3.8,2.4,5.8
				c0.5,2.9,0,5.9,0.2,8.8L32.5,37.6z"/>
		</g>
		<g>
			<path class="st0" d="M37.1,45.5c-0.9-1.5-0.5-5,0.3-6.6c1.1-2.6,4.8-5,7.6-5.2c0.3,3.2-0.4,6.1-2.4,8.4
				C41.2,43.6,39.3,45.5,37.1,45.5L37.1,45.5z"/>
		</g>
	</g>
	<g>
		<g>
			<path class="st1" d="M66.7,59.7c0.8,5.2-3.5,10.8-9.1,9.7c0.7-4.4,4.3-9.9,8.9-10.1L66.7,59.7z"/>
		</g>
		<g>
			<path class="st1" d="M46.4,60.7c-3.8,7.3-16.7,9.3-23.7,6c0.6-2.3,4-4.7,6-5.7c2.2-1.2,4.8-1.8,7.2-1.9c3.5-0.1,6.9,1,10.3,1.3
				L46.4,60.7z"/>
		</g>
		<g>
			<path class="st1" d="M56.5,56.7c-2,0.8-5.9-0.3-7.7-1.5c-2.9-1.7-5-6.5-4.8-9.9c3.8,0.2,7.2,1.5,9.5,4.4c1.6,1.9,3.6,4.4,3.2,7.1
				L56.5,56.7z"/>
		</g>
	</g>
	<g>
		<g>
			<path class="st0" d="M44.6,41.8c-3.7-2.4-4.7-8.3-0.9-11.1c2.3,2.9,3.7,8.3,1.2,11.2L44.6,41.8z"/>
		</g>
		<g>
			<path class="st0" d="M55.5,28.7c-2.3-6.5,3.7-15.6,9.7-18.1c1.1,1.7,0.7,5.1,0.2,6.9c-0.5,2.1-1.6,4-3,5.5
				c-1.9,2.2-4.6,3.7-6.7,5.6L55.5,28.7z"/>
		</g>
		<g>
			<path class="st0" d="M52.3,37.2c0.6-1.7,3.6-3.5,5.3-3.9c2.7-0.8,6.9,0.6,8.8,2.6c-2.3,2.2-5,3.6-8.1,3.4c-2-0.1-4.8-0.3-6.2-2.1
				L52.3,37.2z"/>
		</g>
	</g>
	<g>
		<g>
			<path class="st2" d="M54.7,36.7c0.8,5.2-3.5,10.8-9.1,9.7c0.7-4.4,4.3-9.9,8.9-10.1L54.7,36.7z"/>
		</g>
		<g>
			<path class="st2" d="M34.4,37.7c-3.8,7.3-16.7,9.3-23.7,6c0.6-2.3,4-4.7,6-5.7c2.2-1.2,4.8-1.8,7.2-1.9c3.5-0.1,6.9,1,10.3,1.3
				L34.4,37.7z"/>
		</g>
		<g>
			<path class="st2" d="M44.5,33.7c-2,0.8-5.9-0.3-7.7-1.5c-2.9-1.7-5-6.5-4.8-9.9c3.8,0.2,7.2,1.5,9.5,4.4c1.6,1.9,3.6,4.4,3.2,7.1
				L44.5,33.7z"/>
		</g>
	</g>
</g>
<g>
	<g>
		<g>
			<path class="st0" d="M35.9,55c-3.8-2.4-4.9-8.2-1.1-11.1c2.4,2.8,3.8,8.2,1.4,11.2L35.9,55z"/>
		</g>
		<g>
			<path class="st0" d="M46.7,41.7c-2.4-6.4,3.4-15.7,9.4-18.3c1.1,1.6,0.8,5.1,0.3,6.9c-0.5,2.1-1.6,4-2.9,5.6
				c-1.9,2.3-4.5,3.8-6.6,5.8L46.7,41.7z"/>
		</g>
		<g>
			<path class="st0" d="M43.6,50.3c0.6-1.7,3.5-3.5,5.2-4c2.7-0.9,6.9,0.5,8.9,2.4c-2.2,2.2-4.9,3.7-8,3.5c-2-0.1-4.8-0.2-6.2-2
				L43.6,50.3z"/>
		</g>
	</g>
	<g>
		<g>
			<path class="st1" d="M51.7,82.2c-3.5,4-10.5,4.3-13.3-0.7c3.8-2.3,10.4-3.1,13.4,0.3L51.7,82.2z"/>
		</g>
		<g>
			<path class="st1" d="M37.8,67.2c-8,1.7-17.9-6.8-19.9-14.3c2.1-1,6.2,0,8.2,0.9c2.3,1,4.5,2.6,6.1,4.4c2.3,2.6,3.6,6,5.6,8.8
				L37.8,67.2z"/>
		</g>
		<g>
			<path class="st1" d="M47.4,72.3c-1.9-1-3.5-4.8-3.8-6.9c-0.5-3.3,1.8-8,4.4-10c2.2,3,3.4,6.5,2.7,10c-0.4,2.4-1.1,5.6-3.4,7
				L47.4,72.3z"/>
		</g>
	</g>
	<g>
		<g>
			<path class="st0" d="M51.2,53.7c-0.5-4.4,3.3-8.9,8-7.8c-0.7,3.6-4,8.1-7.8,8.1L51.2,53.7z"/>
		</g>
		<g>
			<path class="st0" d="M68.3,53.6c3.5-5.9,14.4-7.2,20.1-4.2c-0.6,1.9-3.5,3.8-5.2,4.6c-1.9,0.9-4.1,1.3-6.1,1.3
				c-2.9,0-5.8-1.1-8.6-1.5L68.3,53.6z"/>
		</g>
		<g>
			<path class="st0" d="M59.7,56.6c1.7-0.6,5,0.5,6.4,1.5c2.4,1.6,4,5.6,3.7,8.4c-3.2-0.3-6-1.5-7.8-4c-1.2-1.6-2.8-3.9-2.4-6.1
				L59.7,56.6z"/>
		</g>
	</g>
	<g>
		<g>
			<path class="st2" d="M61.6,58.2c-3.5,4-10.5,4.3-13.3-0.7c3.8-2.3,10.4-3.1,13.4,0.3L61.6,58.2z"/>
		</g>
		<g>
			<path class="st2" d="M47.8,43.2c-8,1.7-17.9-6.8-19.9-14.3c2.1-1,6.2,0,8.2,0.9c2.3,1,4.5,2.6,6.1,4.4c2.3,2.6,3.6,6,5.6,8.8
				L47.8,43.2z"/>
		</g>
		<g>
			<path class="st2" d="M57.3,48.3c-1.9-1-3.5-4.8-3.8-6.9c-0.5-3.3,1.8-8,4.4-10c2.2,3,3.4,6.5,2.7,10c-0.4,2.4-1.1,5.6-3.4,7
				L57.3,48.3z"/>
		</g>
	</g>
</g>
</svg>
