<?xml version="1.0" encoding="utf-8"?>
<!-- Generator: Adobe Illustrator 22.0.1, SVG Export Plug-In . SVG Version: 6.00 Build 0)  -->
<svg version="1.1" id="Lag_1" xmlns="http://www.w3.org/2000/svg" xmlns:xlink="http://www.w3.org/1999/xlink" x="0px" y="0px"
	 viewBox="0 0 100 100" style="enable-background:new 0 0 100 100;" xml:space="preserve">
<style type="text/css">
	.st0{fill:#9B5524;}
	.st1{fill:#78421C;}
	.st2{fill:#C9753C;}
</style>
<g>
	<path class="st0" d="M43.4,62.8c-0.7-1.9-2-3.5-3.9-4.2c-1.9-0.7-4.5-0.1-6.2,0.7c-4.2,2-4.4,7.3-2.1,10.8c1,1.5,2.7,2.8,4.6,2.6
		c1.8-0.1,4-1.3,4.3-3.2c0-0.2,0-0.4,0-0.6c0.8,0,1.6-0.2,2.2-0.5C44.2,67.3,44.1,64.6,43.4,62.8z"/>
	<path class="st1" d="M43.5,63c-0.1,0.6-0.4,1.2-0.7,1.7c-0.5,0.7-1.2,1.4-2.1,1.6c-0.4,0.1-1.4,0.1-1.4,0.5
		c-0.1,0.5-0.2,0.9-0.3,1.3c-0.8,2.4-2.9,3.2-5.3,2.9c-0.9-0.1-1.6-0.3-2.3-0.7c1,1.4,2.6,2.4,4.4,2.3c1.8-0.1,4-1.3,4.3-3.2
		c0-0.2,0-0.4,0-0.6c0.8,0,1.6-0.2,2.2-0.5C44.1,67.3,44.1,64.8,43.5,63z"/>
	<g>
		<path class="st2" d="M35.7,59.6c-1.3,0-2.8,0.5-3.6,1.6c0.1-0.2-0.3,0.3-0.3,0.3c-0.2,0.3-0.3,0.7-0.5,1C31.2,62.8,31,63,31,63.4
			c-0.1,0.3,0,0.6-0.1,0.9c-0.2,1,1.3,1.4,1.5,0.4c0.1-0.3,0-0.8,0.2-1.1c0.1-0.2,0.2-0.3,0.3-0.5c0.1-0.1,0.2-0.7,0.3-0.7
			c0.4-0.2,0.6-0.6,1-0.8c0.2-0.1,0.3-0.2,0.4-0.3c0.2-0.2,0.9-0.1,1.2-0.1C36.7,61.1,36.7,59.5,35.7,59.6z"/>
		<path class="st2" d="M31.5,66.1c-1,0-1,1.6,0,1.6C32.5,67.6,32.5,66.1,31.5,66.1z"/>
	</g>
</g>
<g>
	<path class="st0" d="M30.4,51.7c-0.7-1.9-2-3.5-3.9-4.2c-1.9-0.7-4.5-0.1-6.2,0.7c-4.2,2-4.4,7.3-2.1,10.8c1,1.5,2.7,2.8,4.6,2.6
		c1.8-0.1,4-1.3,4.3-3.2c0-0.2,0-0.4,0-0.6c0.8,0,1.6-0.2,2.2-0.5C31.2,56.2,31.1,53.5,30.4,51.7z"/>
	<path class="st1" d="M30.5,52c-0.1,0.6-0.4,1.2-0.7,1.7c-0.5,0.7-1.2,1.4-2.1,1.6c-0.4,0.1-1.4,0.1-1.4,0.5
		c-0.1,0.5-0.2,0.9-0.3,1.3c-0.8,2.4-2.9,3.2-5.3,2.9c-0.9-0.1-1.6-0.3-2.3-0.7c1,1.4,2.6,2.4,4.4,2.3c1.8-0.1,4-1.3,4.3-3.2
		c0-0.2,0-0.4,0-0.6c0.8,0,1.6-0.2,2.2-0.5C31.1,56.2,31.1,53.8,30.5,52z"/>
	<g>
		<path class="st2" d="M22.7,48.5c-1.3,0-2.8,0.5-3.6,1.6c0.1-0.2-0.3,0.3-0.3,0.3c-0.2,0.3-0.3,0.7-0.5,1C18.2,51.7,18,52,18,52.3
			c-0.1,0.3,0,0.6-0.1,0.9c-0.2,1,1.3,1.4,1.5,0.4c0.1-0.3,0-0.8,0.2-1.1c0.1-0.2,0.2-0.3,0.3-0.5c0.1-0.1,0.2-0.7,0.3-0.7
			c0.4-0.2,0.6-0.6,1-0.8c0.2-0.1,0.3-0.2,0.4-0.3c0.2-0.2,0.9-0.1,1.2-0.1C23.7,50,23.7,48.4,22.7,48.5z"/>
		<path class="st2" d="M18.5,55c-1,0-1,1.6,0,1.6C19.5,56.5,19.5,55,18.5,55z"/>
	</g>
</g>
<g>
	<path class="st0" d="M53.6,46.9c-0.7-1.9-2-3.5-3.9-4.2c-1.9-0.7-4.5-0.1-6.2,0.7c-4.2,2-4.4,7.3-2.1,10.8c1,1.5,2.7,2.8,4.6,2.6
		c1.8-0.1,4-1.3,4.3-3.2c0-0.2,0-0.4,0-0.6c0.8,0,1.6-0.2,2.2-0.5C54.4,51.3,54.3,48.7,53.6,46.9z"/>
	<path class="st1" d="M53.7,47.1c-0.1,0.6-0.4,1.2-0.7,1.7c-0.5,0.7-1.2,1.4-2.1,1.6c-0.4,0.1-1.4,0.1-1.4,0.5
		c-0.1,0.5-0.2,0.9-0.3,1.3c-0.8,2.4-2.9,3.2-5.3,2.9c-0.9-0.1-1.6-0.3-2.3-0.7c1,1.4,2.6,2.4,4.4,2.3c1.8-0.1,4-1.3,4.3-3.2
		c0-0.2,0-0.4,0-0.6c0.8,0,1.6-0.2,2.2-0.5C54.3,51.4,54.3,48.9,53.7,47.1z"/>
	<g>
		<path class="st2" d="M45.9,43.6c-1.3,0-2.8,0.5-3.6,1.6c0.1-0.2-0.3,0.3-0.3,0.3c-0.2,0.3-0.3,0.7-0.5,1c-0.2,0.3-0.3,0.5-0.4,0.9
			c-0.1,0.3,0,0.6-0.1,0.9c-0.2,1,1.3,1.4,1.5,0.4c0.1-0.3,0-0.8,0.2-1.1c0.1-0.2,0.2-0.3,0.3-0.5c0.1-0.1,0.2-0.7,0.3-0.7
			c0.4-0.2,0.6-0.6,1-0.8c0.2-0.1,0.3-0.2,0.4-0.3c0.2-0.2,0.9-0.1,1.2-0.1C46.9,45.1,46.9,43.6,45.9,43.6z"/>
		<path class="st2" d="M41.7,50.1c-1,0-1,1.6,0,1.6C42.7,51.7,42.7,50.1,41.7,50.1z"/>
	</g>
</g>
<g>
	<path class="st0" d="M40.3,36.3c-0.7-1.9-2-3.5-3.9-4.2c-1.9-0.7-4.5-0.1-6.2,0.7c-4.2,2-4.4,7.3-2.1,10.8c1,1.5,2.7,2.8,4.6,2.6
		c1.8-0.1,4-1.3,4.3-3.2c0-0.2,0-0.4,0-0.6c0.8,0,1.6-0.2,2.2-0.5C41.1,40.7,41,38.1,40.3,36.3z"/>
	<path class="st1" d="M40.4,36.5c-0.1,0.6-0.4,1.2-0.7,1.7c-0.5,0.7-1.2,1.4-2.1,1.6c-0.4,0.1-1.4,0.1-1.4,0.5
		c-0.1,0.5-0.2,0.9-0.3,1.3c-0.8,2.4-2.9,3.2-5.3,2.9c-0.9-0.1-1.6-0.3-2.3-0.7c1,1.4,2.6,2.4,4.4,2.3c1.8-0.1,4-1.3,4.3-3.2
		c0-0.2,0-0.4,0-0.6c0.8,0,1.6-0.2,2.2-0.5C41,40.8,41,38.3,40.4,36.5z"/>
	<g>
		<path class="st2" d="M32.6,33c-1.3,0-2.8,0.5-3.6,1.6c0.1-0.2-0.3,0.3-0.3,0.3c-0.2,0.3-0.3,0.7-0.5,1c-0.2,0.3-0.3,0.5-0.4,0.9
			c-0.1,0.3,0,0.6-0.1,0.9c-0.2,1,1.3,1.4,1.5,0.4c0.1-0.3,0-0.8,0.2-1.1c0.1-0.2,0.2-0.3,0.3-0.5c0.1-0.1,0.2-0.7,0.3-0.7
			c0.4-0.2,0.6-0.6,1-0.8c0.2-0.1,0.3-0.2,0.4-0.3c0.2-0.2,0.9-0.1,1.2-0.1C33.6,34.5,33.6,33,32.6,33z"/>
		<path class="st2" d="M28.3,39.5c-1,0-1,1.6,0,1.6C29.4,41.1,29.4,39.5,28.3,39.5z"/>
	</g>
</g>
<g>
	<path class="st0" d="M59.5,30.3c-0.7-1.9-2-3.5-3.9-4.2c-1.9-0.7-4.5-0.1-6.2,0.7c-4.2,2-4.4,7.3-2.1,10.8c1,1.5,2.7,2.8,4.6,2.6
		c1.8-0.1,4-1.3,4.3-3.2c0-0.2,0-0.4,0-0.6c0.8,0,1.6-0.2,2.2-0.5C60.2,34.7,60.2,32.1,59.5,30.3z"/>
	<path class="st1" d="M59.5,30.5c-0.1,0.6-0.4,1.2-0.7,1.7c-0.5,0.7-1.2,1.4-2.1,1.6c-0.4,0.1-1.4,0.1-1.4,0.5
		c-0.1,0.5-0.2,0.9-0.3,1.3c-0.8,2.4-2.9,3.2-5.3,2.9c-0.9-0.1-1.6-0.3-2.3-0.7c1,1.4,2.6,2.4,4.4,2.3c1.8-0.1,4-1.3,4.3-3.2
		c0-0.2,0-0.4,0-0.6c0.8,0,1.6-0.2,2.2-0.5C60.2,34.8,60.2,32.3,59.5,30.5z"/>
	<g>
		<path class="st2" d="M51.8,27c-1.3,0-2.8,0.5-3.6,1.6c0.1-0.2-0.3,0.3-0.3,0.3c-0.2,0.3-0.3,0.7-0.5,1c-0.2,0.3-0.3,0.5-0.4,0.9
			c-0.1,0.3,0,0.6-0.1,0.9c-0.2,1,1.3,1.4,1.5,0.4c0.1-0.3,0-0.8,0.2-1.1c0.1-0.2,0.2-0.3,0.3-0.5c0.1-0.1,0.2-0.7,0.3-0.7
			c0.4-0.2,0.6-0.6,1-0.8c0.2-0.1,0.3-0.2,0.4-0.3c0.2-0.2,0.9-0.1,1.2-0.1C52.8,28.5,52.8,27,51.8,27z"/>
		<path class="st2" d="M47.5,33.5c-1,0-1,1.6,0,1.6C48.5,35.1,48.5,33.5,47.5,33.5z"/>
	</g>
</g>
<g>
	<path class="st0" d="M66.5,57.7c-0.7-1.9-2-3.5-3.9-4.2c-1.9-0.7-4.5-0.1-6.2,0.7c-4.2,2-4.4,7.3-2.1,10.8c1,1.5,2.7,2.8,4.6,2.6
		c1.8-0.1,4-1.3,4.3-3.2c0-0.2,0-0.4,0-0.6c0.8,0,1.6-0.2,2.2-0.5C67.3,62.2,67.2,59.5,66.5,57.7z"/>
	<path class="st1" d="M66.6,58c-0.1,0.6-0.4,1.2-0.7,1.7c-0.5,0.7-1.2,1.4-2.1,1.6c-0.4,0.1-1.4,0.1-1.4,0.5
		c-0.1,0.5-0.2,0.9-0.3,1.3c-0.8,2.4-2.9,3.2-5.3,2.9c-0.9-0.1-1.6-0.3-2.3-0.7c1,1.4,2.6,2.4,4.4,2.3c1.8-0.1,4-1.3,4.3-3.2
		c0-0.2,0-0.4,0-0.6c0.8,0,1.6-0.2,2.2-0.5C67.3,62.2,67.2,59.8,66.6,58z"/>
	<g>
		<path class="st2" d="M58.9,54.5c-1.3,0-2.8,0.5-3.6,1.6c0.1-0.2-0.3,0.3-0.3,0.3c-0.2,0.3-0.3,0.7-0.5,1c-0.2,0.3-0.3,0.5-0.4,0.9
			c-0.1,0.3,0,0.6-0.1,0.9c-0.2,1,1.3,1.4,1.5,0.4c0.1-0.3,0-0.8,0.2-1.1c0.1-0.2,0.2-0.3,0.3-0.5c0.1-0.1,0.2-0.7,0.3-0.7
			c0.4-0.2,0.6-0.6,1-0.8c0.2-0.1,0.3-0.2,0.4-0.3c0.2-0.2,0.9-0.1,1.2-0.1C59.8,56,59.9,54.4,58.9,54.5z"/>
		<path class="st2" d="M54.6,61c-1,0-1,1.6,0,1.6C55.6,62.5,55.6,61,54.6,61z"/>
	</g>
</g>
<g>
	<path class="st0" d="M24.5,30.6c-0.7-1.9-2-3.5-3.9-4.2c-1.9-0.7-4.5-0.1-6.2,0.7c-4.2,2-4.4,7.3-2.1,10.8c1,1.5,2.7,2.8,4.6,2.6
		c1.8-0.1,4-1.3,4.3-3.2c0-0.2,0-0.4,0-0.6c0.8,0,1.6-0.2,2.2-0.5C25.3,35,25.2,32.4,24.5,30.6z"/>
	<path class="st1" d="M24.5,30.8c-0.1,0.6-0.4,1.2-0.7,1.7c-0.5,0.7-1.2,1.4-2.1,1.6c-0.4,0.1-1.4,0.1-1.4,0.5
		c-0.1,0.5-0.2,0.9-0.3,1.3c-0.8,2.4-2.9,3.2-5.3,2.9c-0.9-0.1-1.6-0.3-2.3-0.7c1,1.4,2.6,2.4,4.4,2.3c1.8-0.1,4-1.3,4.3-3.2
		c0-0.2,0-0.4,0-0.6c0.8,0,1.6-0.2,2.2-0.5C25.2,35.1,25.2,32.6,24.5,30.8z"/>
	<g>
		<path class="st2" d="M16.8,27.3c-1.3,0-2.8,0.5-3.6,1.6c0.1-0.2-0.3,0.3-0.3,0.3c-0.2,0.3-0.3,0.7-0.5,1c-0.2,0.3-0.3,0.5-0.4,0.9
			c-0.1,0.3,0,0.6-0.1,0.9c-0.2,1,1.3,1.4,1.5,0.4c0.1-0.3,0-0.8,0.2-1.1c0.1-0.2,0.2-0.3,0.3-0.5c0.1-0.1,0.2-0.7,0.3-0.7
			c0.4-0.2,0.6-0.6,1-0.8c0.2-0.1,0.3-0.2,0.4-0.3c0.2-0.2,0.9-0.1,1.2-0.1C17.8,28.8,17.8,27.3,16.8,27.3z"/>
		<path class="st2" d="M12.5,33.8c-1,0-1,1.6,0,1.6S13.5,33.8,12.5,33.8z"/>
	</g>
</g>
<g>
	<path class="st0" d="M43.1,20.5c-0.7-1.9-2-3.5-3.9-4.2c-1.9-0.7-4.5-0.1-6.2,0.7c-4.2,2-4.4,7.3-2.1,10.8c1,1.5,2.7,2.8,4.6,2.6
		c1.8-0.1,4-1.3,4.3-3.2c0-0.2,0-0.4,0-0.6c0.8,0,1.6-0.2,2.2-0.5C43.9,24.9,43.8,22.3,43.1,20.5z"/>
	<path class="st1" d="M43.2,20.7c-0.1,0.6-0.4,1.2-0.7,1.7c-0.5,0.7-1.2,1.4-2.1,1.6c-0.4,0.1-1.4,0.1-1.4,0.5
		c-0.1,0.5-0.2,0.9-0.3,1.3c-0.8,2.4-2.9,3.2-5.3,2.9c-0.9-0.1-1.6-0.3-2.3-0.7c1,1.4,2.6,2.4,4.4,2.3c1.8-0.1,4-1.3,4.3-3.2
		c0-0.2,0-0.4,0-0.6c0.8,0,1.6-0.2,2.2-0.5C43.8,25,43.8,22.5,43.2,20.7z"/>
	<g>
		<path class="st2" d="M35.4,17.2c-1.3,0-2.8,0.5-3.6,1.6c0.1-0.2-0.3,0.3-0.3,0.3c-0.2,0.3-0.3,0.7-0.5,1c-0.2,0.3-0.3,0.5-0.4,0.9
			c-0.1,0.3,0,0.6-0.1,0.9c-0.2,1,1.3,1.4,1.5,0.4c0.1-0.3,0-0.8,0.2-1.1c0.1-0.2,0.2-0.3,0.3-0.5c0.1-0.1,0.2-0.7,0.3-0.7
			c0.4-0.2,0.6-0.6,1-0.8c0.2-0.1,0.3-0.2,0.4-0.3c0.2-0.2,0.9-0.1,1.2-0.1C36.4,18.7,36.4,17.2,35.4,17.2z"/>
		<path class="st2" d="M31.2,23.7c-1,0-1,1.6,0,1.6C32.2,25.3,32.2,23.7,31.2,23.7z"/>
	</g>
</g>
<g>
	<path class="st0" d="M56.4,73.8c-0.7-1.9-2-3.5-3.9-4.2c-1.9-0.7-4.5-0.1-6.2,0.7c-4.2,2-4.4,7.3-2.1,10.8c1,1.5,2.7,2.8,4.6,2.6
		c1.8-0.1,4-1.3,4.3-3.2c0-0.2,0-0.4,0-0.6c0.8,0,1.6-0.2,2.2-0.5C57.2,78.3,57.1,75.6,56.4,73.8z"/>
	<path class="st1" d="M56.5,74c-0.1,0.6-0.4,1.2-0.7,1.7c-0.5,0.7-1.2,1.4-2.1,1.6c-0.4,0.1-1.4,0.1-1.4,0.5
		c-0.1,0.5-0.2,0.9-0.3,1.3c-0.8,2.4-2.9,3.2-5.3,2.9c-0.9-0.1-1.6-0.3-2.3-0.7c1,1.4,2.6,2.4,4.4,2.3c1.8-0.1,4-1.3,4.3-3.2
		c0-0.2,0-0.4,0-0.6c0.8,0,1.6-0.2,2.2-0.5C57.1,78.3,57.1,75.8,56.5,74z"/>
	<g>
		<path class="st2" d="M48.7,70.6c-1.3,0-2.8,0.5-3.6,1.6c0.1-0.2-0.3,0.3-0.3,0.3c-0.2,0.3-0.3,0.7-0.5,1C44.2,73.8,44,74,44,74.4
			c-0.1,0.3,0,0.6-0.1,0.9c-0.2,1,1.3,1.4,1.5,0.4c0.1-0.3,0-0.8,0.2-1.1c0.1-0.2,0.2-0.3,0.3-0.5c0.1-0.1,0.2-0.7,0.3-0.7
			c0.4-0.2,0.6-0.6,1-0.8c0.2-0.1,0.3-0.2,0.4-0.3c0.2-0.2,0.9-0.1,1.2-0.1C49.7,72.1,49.7,70.5,48.7,70.6z"/>
		<path class="st2" d="M44.5,77.1c-1,0-1,1.6,0,1.6C45.5,78.6,45.5,77.1,44.5,77.1z"/>
	</g>
</g>
<g>
	<path class="st0" d="M25.4,69.7c-0.7-1.9-2-3.5-3.9-4.2c-1.9-0.7-4.5-0.1-6.2,0.7c-4.2,2-4.4,7.3-2.1,10.8c1,1.5,2.7,2.8,4.6,2.6
		c1.8-0.1,4-1.3,4.3-3.2c0-0.2,0-0.4,0-0.6c0.8,0,1.6-0.2,2.2-0.5C26.2,74.2,26.1,71.5,25.4,69.7z"/>
	<path class="st1" d="M25.5,70c-0.1,0.6-0.4,1.2-0.7,1.7c-0.5,0.7-1.2,1.4-2.1,1.6c-0.4,0.1-1.4,0.1-1.4,0.5
		c-0.1,0.5-0.2,0.9-0.3,1.3c-0.8,2.4-2.9,3.2-5.3,2.9c-0.9-0.1-1.6-0.3-2.3-0.7c1,1.4,2.6,2.4,4.4,2.3c1.8-0.1,4-1.3,4.3-3.2
		c0-0.2,0-0.4,0-0.6c0.8,0,1.6-0.2,2.2-0.5C26.1,74.2,26.1,71.8,25.5,70z"/>
	<g>
		<path class="st2" d="M17.7,66.5c-1.3,0-2.8,0.5-3.6,1.6c0.1-0.2-0.3,0.3-0.3,0.3c-0.2,0.3-0.3,0.7-0.5,1C13.2,69.7,13,70,13,70.3
			c-0.1,0.3,0,0.6-0.1,0.9c-0.2,1,1.3,1.4,1.5,0.4c0.1-0.3,0-0.8,0.2-1.1c0.1-0.2,0.2-0.3,0.3-0.5c0.1-0.1,0.2-0.7,0.3-0.7
			c0.4-0.2,0.6-0.6,1-0.8c0.2-0.1,0.3-0.2,0.4-0.3c0.2-0.2,0.9-0.1,1.2-0.1C18.7,68,18.7,66.4,17.7,66.5z"/>
		<path class="st2" d="M13.5,73c-1,0-1,1.6,0,1.6C14.5,74.5,14.5,73,13.5,73z"/>
	</g>
</g>
<g>
	<path class="st0" d="M66.6,57.9c-0.7-1.9-2-3.5-3.9-4.2c-1.9-0.7-4.5-0.1-6.2,0.7c-4.2,2-4.4,7.3-2.1,10.8c1,1.5,2.7,2.8,4.6,2.6
		c1.8-0.1,4-1.3,4.3-3.2c0-0.2,0-0.4,0-0.6c0.8,0,1.6-0.2,2.2-0.5C67.4,62.3,67.3,59.7,66.6,57.9z"/>
	<path class="st1" d="M66.7,58.1c-0.1,0.6-0.4,1.2-0.7,1.7c-0.5,0.7-1.2,1.4-2.1,1.6c-0.4,0.1-1.4,0.1-1.4,0.5
		c-0.1,0.5-0.2,0.9-0.3,1.3c-0.8,2.4-2.9,3.2-5.3,2.9c-0.9-0.1-1.6-0.3-2.3-0.7c1,1.4,2.6,2.4,4.4,2.3c1.8-0.1,4-1.3,4.3-3.2
		c0-0.2,0-0.4,0-0.6c0.8,0,1.6-0.2,2.2-0.5C67.3,62.4,67.3,59.9,66.7,58.1z"/>
	<g>
		<path class="st2" d="M58.9,54.6c-1.3,0-2.8,0.5-3.6,1.6c0.1-0.2-0.3,0.3-0.3,0.3c-0.2,0.3-0.3,0.7-0.5,1c-0.2,0.3-0.3,0.5-0.4,0.9
			c-0.1,0.3,0,0.6-0.1,0.9c-0.2,1,1.3,1.4,1.5,0.4c0.1-0.3,0-0.8,0.2-1.1c0.1-0.2,0.2-0.3,0.3-0.5c0.1-0.1,0.2-0.7,0.3-0.7
			c0.4-0.2,0.6-0.6,1-0.8c0.2-0.1,0.3-0.2,0.4-0.3c0.2-0.2,0.9-0.1,1.2-0.1C59.9,56.1,59.9,54.6,58.9,54.6z"/>
		<path class="st2" d="M54.7,61.1c-1,0-1,1.6,0,1.6C55.7,62.7,55.7,61.1,54.7,61.1z"/>
	</g>
</g>
<g>
	<path class="st0" d="M53.3,47.3c-0.7-1.9-2-3.5-3.9-4.2c-1.9-0.7-4.5-0.1-6.2,0.7c-4.2,2-4.4,7.3-2.1,10.8c1,1.5,2.7,2.8,4.6,2.6
		c1.8-0.1,4-1.3,4.3-3.2c0-0.2,0-0.4,0-0.6c0.8,0,1.6-0.2,2.2-0.5C54.1,51.7,54,49.1,53.3,47.3z"/>
	<path class="st1" d="M53.4,47.5c-0.1,0.6-0.4,1.2-0.7,1.7c-0.5,0.7-1.2,1.4-2.1,1.6c-0.4,0.1-1.4,0.1-1.4,0.5
		c-0.1,0.5-0.2,0.9-0.3,1.3c-0.8,2.4-2.9,3.2-5.3,2.9c-0.9-0.1-1.6-0.3-2.3-0.7c1,1.4,2.6,2.4,4.4,2.3c1.8-0.1,4-1.3,4.3-3.2
		c0-0.2,0-0.4,0-0.6c0.8,0,1.6-0.2,2.2-0.5C54,51.8,54,49.3,53.4,47.5z"/>
	<g>
		<path class="st2" d="M45.6,44c-1.3,0-2.8,0.5-3.6,1.6c0.1-0.2-0.3,0.3-0.3,0.3c-0.2,0.3-0.3,0.7-0.5,1c-0.2,0.3-0.3,0.5-0.4,0.9
			c-0.1,0.3,0,0.6-0.1,0.9c-0.2,1,1.3,1.4,1.5,0.4c0.1-0.3,0-0.8,0.2-1.1c0.1-0.2,0.2-0.3,0.3-0.5c0.1-0.1,0.2-0.7,0.3-0.7
			c0.4-0.2,0.6-0.6,1-0.8c0.2-0.1,0.3-0.2,0.4-0.3c0.2-0.2,0.9-0.1,1.2-0.1C46.6,45.5,46.6,44,45.6,44z"/>
		<path class="st2" d="M41.3,50.5c-1,0-1,1.6,0,1.6C42.4,52.1,42.4,50.5,41.3,50.5z"/>
	</g>
</g>
<g>
	<path class="st0" d="M72.5,41.3c-0.7-1.9-2-3.5-3.9-4.2c-1.9-0.7-4.5-0.1-6.2,0.7c-4.2,2-4.4,7.3-2.1,10.8c1,1.5,2.7,2.8,4.6,2.6
		c1.8-0.1,4-1.3,4.3-3.2c0-0.2,0-0.4,0-0.6c0.8,0,1.6-0.2,2.2-0.5C73.2,45.7,73.2,43.1,72.5,41.3z"/>
	<path class="st1" d="M72.5,41.5c-0.1,0.6-0.4,1.2-0.7,1.7c-0.5,0.7-1.2,1.4-2.1,1.6c-0.4,0.1-1.4,0.1-1.4,0.5
		c-0.1,0.5-0.2,0.9-0.3,1.3c-0.8,2.4-2.9,3.2-5.3,2.9c-0.9-0.1-1.6-0.3-2.3-0.7c1,1.4,2.6,2.4,4.4,2.3c1.8-0.1,4-1.3,4.3-3.2
		c0-0.2,0-0.4,0-0.6c0.8,0,1.6-0.2,2.2-0.5C73.2,45.8,73.2,43.3,72.5,41.5z"/>
	<g>
		<path class="st2" d="M64.8,38c-1.3,0-2.8,0.5-3.6,1.6c0.1-0.2-0.3,0.3-0.3,0.3c-0.2,0.3-0.3,0.7-0.5,1c-0.2,0.3-0.3,0.5-0.4,0.9
			c-0.1,0.3,0,0.6-0.1,0.9c-0.2,1,1.3,1.4,1.5,0.4c0.1-0.3,0-0.8,0.2-1.1c0.1-0.2,0.2-0.3,0.3-0.5c0.1-0.1,0.2-0.7,0.3-0.7
			c0.4-0.2,0.6-0.6,1-0.8c0.2-0.1,0.3-0.2,0.4-0.3c0.2-0.2,0.9-0.1,1.2-0.1C65.8,39.5,65.8,38,64.8,38z"/>
		<path class="st2" d="M60.5,44.5c-1,0-1,1.6,0,1.6C61.5,46.1,61.5,44.5,60.5,44.5z"/>
	</g>
</g>
<g>
	<path class="st0" d="M79.5,68.7c-0.7-1.9-2-3.5-3.9-4.2c-1.9-0.7-4.5-0.1-6.2,0.7c-4.2,2-4.4,7.3-2.1,10.8c1,1.5,2.7,2.8,4.6,2.6
		c1.8-0.1,4-1.3,4.3-3.2c0-0.2,0-0.4,0-0.6c0.8,0,1.6-0.2,2.2-0.5C80.3,73.2,80.2,70.5,79.5,68.7z"/>
	<path class="st1" d="M79.6,69c-0.1,0.6-0.4,1.2-0.7,1.7c-0.5,0.7-1.2,1.4-2.1,1.6c-0.4,0.1-1.4,0.1-1.4,0.5
		c-0.1,0.5-0.2,0.9-0.3,1.3c-0.8,2.4-2.9,3.2-5.3,2.9c-0.9-0.1-1.6-0.3-2.3-0.7c1,1.4,2.6,2.4,4.4,2.3c1.8-0.1,4-1.3,4.3-3.2
		c0-0.2,0-0.4,0-0.6c0.8,0,1.6-0.2,2.2-0.5C80.3,73.2,80.2,70.8,79.6,69z"/>
	<g>
		<path class="st2" d="M71.9,65.5c-1.3,0-2.8,0.5-3.6,1.6c0.1-0.2-0.3,0.3-0.3,0.3c-0.2,0.3-0.3,0.7-0.5,1c-0.2,0.3-0.3,0.5-0.4,0.9
			c-0.1,0.3,0,0.6-0.1,0.9c-0.2,1,1.3,1.4,1.5,0.4c0.1-0.3,0-0.8,0.2-1.1c0.1-0.2,0.2-0.3,0.3-0.5c0.1-0.1,0.2-0.7,0.3-0.7
			c0.4-0.2,0.6-0.6,1-0.8c0.2-0.1,0.3-0.2,0.4-0.3c0.2-0.2,0.9-0.1,1.2-0.1C72.8,67,72.9,65.4,71.9,65.5z"/>
		<path class="st2" d="M67.6,72c-1,0-1,1.6,0,1.6C68.6,73.5,68.6,72,67.6,72z"/>
	</g>
</g>
<g>
	<path class="st0" d="M86.5,50.6c-0.7-1.9-2-3.5-3.9-4.2c-1.9-0.7-4.5-0.1-6.2,0.7c-4.2,2-4.4,7.3-2.1,10.8c1,1.5,2.7,2.8,4.6,2.6
		c1.8-0.1,4-1.3,4.3-3.2c0-0.2,0-0.4,0-0.6c0.8,0,1.6-0.2,2.2-0.5C87.3,55,87.2,52.4,86.5,50.6z"/>
	<path class="st1" d="M86.5,50.8c-0.1,0.6-0.4,1.2-0.7,1.7c-0.5,0.7-1.2,1.4-2.1,1.6c-0.4,0.1-1.4,0.1-1.4,0.5
		c-0.1,0.5-0.2,0.9-0.3,1.3c-0.8,2.4-2.9,3.2-5.3,2.9c-0.9-0.1-1.6-0.3-2.3-0.7c1,1.4,2.6,2.4,4.4,2.3c1.8-0.1,4-1.3,4.3-3.2
		c0-0.2,0-0.4,0-0.6c0.8,0,1.6-0.2,2.2-0.5C87.2,55.1,87.2,52.6,86.5,50.8z"/>
	<g>
		<path class="st2" d="M78.8,47.3c-1.3,0-2.8,0.5-3.6,1.6c0.1-0.2-0.3,0.3-0.3,0.3c-0.2,0.3-0.3,0.7-0.5,1c-0.2,0.3-0.3,0.5-0.4,0.9
			c-0.1,0.3,0,0.6-0.1,0.9c-0.2,1,1.3,1.4,1.5,0.4c0.1-0.3,0-0.8,0.2-1.1c0.1-0.2,0.2-0.3,0.3-0.5c0.1-0.1,0.2-0.7,0.3-0.7
			c0.4-0.2,0.6-0.6,1-0.8c0.2-0.1,0.3-0.2,0.4-0.3c0.2-0.2,0.9-0.1,1.2-0.1C79.8,48.8,79.8,47.3,78.8,47.3z"/>
		<path class="st2" d="M74.5,53.8c-1,0-1,1.6,0,1.6S75.5,53.8,74.5,53.8z"/>
	</g>
</g>
<g>
	<path class="st0" d="M78.1,21.5c-0.7-1.9-2-3.5-3.9-4.2c-1.9-0.7-4.5-0.1-6.2,0.7c-4.2,2-4.4,7.3-2.1,10.8c1,1.5,2.7,2.8,4.6,2.6
		c1.8-0.1,4-1.3,4.3-3.2c0-0.2,0-0.4,0-0.6c0.8,0,1.6-0.2,2.2-0.5C78.9,25.9,78.8,23.3,78.1,21.5z"/>
	<path class="st1" d="M78.2,21.7c-0.1,0.6-0.4,1.2-0.7,1.7c-0.5,0.7-1.2,1.4-2.1,1.6c-0.4,0.1-1.4,0.1-1.4,0.5
		c-0.1,0.5-0.2,0.9-0.3,1.3c-0.8,2.4-2.9,3.2-5.3,2.9c-0.9-0.1-1.6-0.3-2.3-0.7c1,1.4,2.6,2.4,4.4,2.3c1.8-0.1,4-1.3,4.3-3.2
		c0-0.2,0-0.4,0-0.6c0.8,0,1.6-0.2,2.2-0.5C78.8,26,78.8,23.5,78.2,21.7z"/>
	<g>
		<path class="st2" d="M70.4,18.2c-1.3,0-2.8,0.5-3.6,1.6c0.1-0.2-0.3,0.3-0.3,0.3c-0.2,0.3-0.3,0.7-0.5,1c-0.2,0.3-0.3,0.5-0.4,0.9
			c-0.1,0.3,0,0.6-0.1,0.9c-0.2,1,1.3,1.4,1.5,0.4c0.1-0.3,0-0.8,0.2-1.1c0.1-0.2,0.2-0.3,0.3-0.5c0.1-0.1,0.2-0.7,0.3-0.7
			c0.4-0.2,0.6-0.6,1-0.8c0.2-0.1,0.3-0.2,0.4-0.3c0.2-0.2,0.9-0.1,1.2-0.1C71.4,19.7,71.4,18.2,70.4,18.2z"/>
		<path class="st2" d="M66.2,24.7c-1,0-1,1.6,0,1.6C67.2,26.3,67.2,24.7,66.2,24.7z"/>
	</g>
</g>
</svg>
