<?xml version="1.0" encoding="utf-8"?>
<!-- Generator: Adobe Illustrator 22.0.1, SVG Export Plug-In . SVG Version: 6.00 Build 0)  -->
<svg version="1.1" id="Lag_1" xmlns="http://www.w3.org/2000/svg" xmlns:xlink="http://www.w3.org/1999/xlink" x="0px" y="0px"
	 viewBox="0 0 100 100" style="enable-background:new 0 0 100 100;" xml:space="preserve">
<style type="text/css">
	.st0{fill:#E0857C;}
	.st1{fill:#F8AD9C;}
	.st2{fill:#EF9889;}
	.st3{fill:#FAC3B9;}
</style>
<g>
	<path class="st0" d="M39.9,67c2.3,7.2,13.3,8.2,19.9,7.2c9.2-1.3,15.7-8.4,20.6-16c4.5-7,8.7-16.5,9.1-25c0.2-3.1-2.6-8.5-5.7-9.8
		c-2.8-1.2-9.1,0.2-11.5,2.1L39.9,67z"/>
	<g>
		<path class="st1" d="M87,28.4c0.1,0.3,0.1,0.5,0.1,0.8c0.2,1.5-0.1,3.1-0.6,4.7c-0.1,0.2-0.1,0.5-0.2,0.7l0,0
			c-0.9,2.7-2.4,5.4-3.4,7.7c-0.1,0.2-0.2,0.4-0.3,0.7c-0.2,0.5-0.4,0.9-0.6,1.4c-1.2,2.6-2.4,5.1-3.7,7.7c-0.2,0.5-0.5,0.9-0.7,1.4
			c-0.7,1.4-1.4,2.7-2.2,4c-0.4,0.8-0.9,1.6-1.3,2.4c-0.5,0.8-1,1.7-1.5,2.5c-2.4,3.9-5.3,7-10.1,7.6c-6,0.8-11.1,0.8-17.2,0.1
			c-1.5-0.2-2.8-0.3-3.7-0.7c-1.7-0.6-2.3-1.9-2.2-5.1c0.1-1.2,0.2-2.4,0.4-3.6c0.1-0.3,0.1-0.6,0.2-0.9c0.6-3.1,1.7-6,3-8.8
			c0.2-0.4,0.4-0.8,0.6-1.2c1.3-2.7,2.8-5.3,4.3-7.9c0.1-0.2,0.2-0.4,0.3-0.6c0.1-0.2,0.2-0.4,0.4-0.6c0.9-1.5,1.8-3,2.8-4.5
			c0.3-0.4,0.5-0.8,0.8-1.2C53,34,53.7,33,54.6,32c0.4-0.5,0.9-1,1.3-1.5c0.3-0.3,0.6-0.6,0.9-0.9c2.4-2.3,4.3-3.1,7.4-3.7
			c1.4-0.2,3.4-0.8,5.6-1.4c0.1,0,0.3-0.1,0.4-0.1c6-1.5,13.7-2.9,16.1,2.2C86.7,27.2,86.8,27.8,87,28.4z"/>
		<path class="st2" d="M87,28.4c0.1,0.3,0.1,0.5,0.1,0.8c0.2,1.5-0.1,3.1-0.6,4.7c0.2,0.2,0.1,0.6-0.2,0.7l0,0
			c-0.9,2.7-2.4,5.4-3.4,7.7c-0.1,0.2-0.2,0.4-0.3,0.7c-0.2,0.5-0.4,0.9-0.6,1.4c-1.2,2.6-2.4,5.1-3.7,7.7c-0.2,0.5-0.5,0.9-0.7,1.4
			c-0.7,1.4-1.4,2.7-2.2,4c-0.4,0.8-0.9,1.6-1.3,2.4c-0.5,0.8-1,1.7-1.5,2.5c-2.4,3.9-5.3,7-10.1,7.6c-6,0.8-11.1,0.8-17.2,0.1
			c-1.5-0.2-2.8-0.3-3.7-0.7c0.1-0.1,0.3-0.2,0.5-0.3c1.4-0.7,4.4-0.3,6-0.7c1-0.3,1.8-0.6,2.4-1c0.5-0.3,0.9-0.6,1.2-0.9
			c1.3-1.3,1.9-3.1,2.8-5.3c0.2-0.5,0.4-0.9,0.6-1.4c0.1-0.2,0.2-0.4,0.3-0.6c0.9-2.1,1.8-4.2,2.7-6.3c0.4-0.8,0.7-1.7,1.1-2.5
			c0.5-1.2,1.1-2.5,1.7-3.7c0.4-0.8,0.8-1.7,1.2-2.5c0.5-1,0.9-2,1.4-2.9c0.9-2,1.9-4,2.7-6.1c0,0,0-0.1,0.1-0.1c0.4-1,0.9-2,1.4-3
			c0.4-0.9,0.9-1.8,1.2-2.8c0.5-1.4,0.8-3.1,1.2-4.7c0.1,0,0.3-0.1,0.4-0.1c6-1.5,13.7-2.9,16.1,2.2C86.7,27.2,86.8,27.8,87,28.4z"
			/>
		<path class="st3" d="M87,28.4c-1,0.3-2,0.5-3,0.7c-2,0.3-4,0.6-6,1c-4,0.8-7.9,2-11,4.7c-0.2,0.2-0.5,0.3-0.8,0.3
			c-0.1,0-0.2,0-0.3-0.1c-2.2-1.6-5.1-2.2-7.8-2.6c-1.2-0.2-2.3-0.3-3.5-0.4c0.4-0.5,0.9-1,1.3-1.5c0.8,0,1.7,0.1,2.5,0.2
			c2.6,0.4,5.4,0.9,7.7,2.4c0.4-0.4,0.9-0.7,1.3-1c2.8-1.9,6-3.1,9.4-3.8c2.1-0.4,4.2-0.8,6.2-1.2c1.1-0.2,2.2-0.3,3.3-0.5
			C86.7,27.2,86.8,27.8,87,28.4z"/>
		<path class="st3" d="M86.3,34.7L86.3,34.7c-4.4,0.7-8.7,1.2-12.9,2.9c-4.1,1.7-7.9,3.9-11.4,6.7c0,0,0,0,0,0c-0.4,0.3-1,0-1.1-0.4
			c-0.7-2.6-3.1-4.7-5.3-6c-1.3-0.7-2.7-1.3-4.1-1.6c0.3-0.4,0.5-0.8,0.8-1.2c1.4,0.3,2.8,0.9,4,1.5c2.3,1.3,4.6,3.2,5.7,5.8
			c0.5-0.4,1-0.7,1.5-1.1c3.1-2.2,6.4-4.1,9.9-5.4c4-1.6,8.7-3,13-2c0.1,0,0.1,0,0.2,0.1C86.8,34.2,86.6,34.6,86.3,34.7z"/>
		<path class="st3" d="M82.9,42.4c-0.1,0.2-0.2,0.4-0.3,0.7c-0.2,0.5-0.4,0.9-0.6,1.4c-0.1,0-0.2,0-0.2,0c-3,0.4-5.8,1.1-8.7,2.1
			c-5.2,1.7-10.1,4.1-15,6.5c-0.1,0-0.2,0.1-0.3,0.1c-0.3,0.2-0.8-0.1-1-0.4c-1.5-2.3-2.8-4.8-4.5-7c-0.8-1.1-1.8-2.4-2.9-3.1
			C49,42.4,48.5,42,47.9,42c0.1-0.2,0.2-0.4,0.3-0.6c0.1-0.2,0.2-0.4,0.4-0.6c0.2,0.1,0.4,0.1,0.6,0.2c1.4,0.6,2.5,1.7,3.5,2.9
			c1.9,2.3,3.3,4.9,5,7.3c0.5-0.2,0.9-0.5,1.4-0.7C66.3,46.6,74.6,42.3,82.9,42.4z"/>
		<path class="st3" d="M78.2,52.1c-0.2,0.5-0.5,0.9-0.7,1.4c-0.6,0.1-1.3,0.2-1.9,0.3c-2.4,0.4-4.8,1-7.1,1.8
			c-4.4,1.5-8.8,3.7-12.2,6.9c-0.5,0.4-1.2,0.3-1.5-0.3c-0.1-0.3-0.2-0.6-0.4-0.9c-1.1-2.4-3.2-4.6-5.1-6.2
			c-1.2-1.1-2.5-2.1-3.9-2.8c-0.8-0.4-1.7-0.7-2.5-1.1c0.2-0.4,0.4-0.8,0.6-1.2c0.9,0.1,1.8,0.5,2.6,0.9c1.5,0.8,3,1.8,4.3,3
			c1.8,1.5,3.6,3.4,4.9,5.5c0.2,0.4,0.5,0.8,0.7,1.2c3.5-3,7.7-5.1,11.9-6.6c2.5-0.8,5-1.5,7.6-1.8C76.5,51.9,77.3,52,78.2,52.1z"/>
		<path class="st3" d="M74,59.9c-0.5,0.8-1,1.7-1.5,2.5c-1.5,0.6-3,1.1-4.5,1.5c-5.5,1.4-11,2.6-16.2,4.8c-0.3,0.1-0.7,0-0.9-0.3
			c-0.1-0.3-0.3-0.6-0.5-0.8c-1.2-1.9-3.1-3.5-4.9-4.7c-1.5-1-3.8-2.5-5.8-2c0.1-0.3,0.1-0.6,0.2-0.9c1.8-0.7,4.4,0.8,5.9,1.6
			c2.1,1.3,4.4,2.9,5.8,5c0.1,0.1,0.2,0.2,0.2,0.3c5.3-2.2,10.9-3.4,16.4-5C70.3,61.4,72.1,60.6,74,59.9z"/>
	</g>
</g>
<g>
	<path class="st0" d="M10.8,65.8C13,73,24,74,30.7,73c9.2-1.3,15.7-8.4,20.6-16c4.5-7,8.7-16.5,9.1-25c0.2-3.1-2.6-8.5-5.7-9.8
		c-2.8-1.2-9.1,0.2-11.5,2.1L10.8,65.8z"/>
	<g>
		<path class="st1" d="M57.9,27.3c0.1,0.3,0.1,0.5,0.1,0.8c0.2,1.5-0.1,3.1-0.6,4.7c-0.1,0.2-0.1,0.5-0.2,0.7l0,0
			c-0.9,2.7-2.4,5.4-3.4,7.7c-0.1,0.2-0.2,0.4-0.3,0.7c-0.2,0.5-0.4,0.9-0.6,1.4c-1.2,2.6-2.4,5.1-3.7,7.7c-0.2,0.5-0.5,0.9-0.7,1.4
			c-0.7,1.4-1.4,2.7-2.2,4c-0.4,0.8-0.9,1.6-1.3,2.4c-0.5,0.8-1,1.7-1.5,2.5c-2.4,3.9-5.3,7-10.1,7.6c-6,0.8-11.1,0.8-17.2,0.1
			c-1.5-0.2-2.8-0.3-3.7-0.7c-1.7-0.6-2.3-1.9-2.2-5.1c0.1-1.2,0.2-2.4,0.4-3.6c0.1-0.3,0.1-0.6,0.2-0.9c0.6-3.1,1.7-6,3-8.8
			c0.2-0.4,0.4-0.8,0.6-1.2c1.3-2.7,2.8-5.3,4.3-7.9c0.1-0.2,0.2-0.4,0.3-0.6c0.1-0.2,0.2-0.4,0.4-0.6c0.9-1.5,1.8-3,2.8-4.5
			c0.3-0.4,0.5-0.8,0.8-1.2c0.7-1.1,1.5-2.1,2.4-3.1c0.4-0.5,0.9-1,1.3-1.5c0.3-0.3,0.6-0.6,0.9-0.9c2.4-2.3,4.3-3.1,7.4-3.7
			c1.4-0.2,3.4-0.8,5.6-1.4c0.1,0,0.3-0.1,0.4-0.1c6-1.5,13.7-2.9,16.1,2.2C57.5,26,57.7,26.6,57.9,27.3z"/>
		<path class="st2" d="M57.9,27.3c0.1,0.3,0.1,0.5,0.1,0.8c0.2,1.5-0.1,3.1-0.6,4.7c0.2,0.2,0.1,0.6-0.2,0.7l0,0
			c-0.9,2.7-2.4,5.4-3.4,7.7c-0.1,0.2-0.2,0.4-0.3,0.7c-0.2,0.5-0.4,0.9-0.6,1.4c-1.2,2.6-2.4,5.1-3.7,7.7c-0.2,0.5-0.5,0.9-0.7,1.4
			c-0.7,1.4-1.4,2.7-2.2,4c-0.4,0.8-0.9,1.6-1.3,2.4c-0.5,0.8-1,1.7-1.5,2.5c-2.4,3.9-5.3,7-10.1,7.6c-6,0.8-11.1,0.8-17.2,0.1
			c-1.5-0.2-2.8-0.3-3.7-0.7c0.1-0.1,0.3-0.2,0.5-0.3c1.4-0.7,4.4-0.3,6-0.7c1-0.3,1.8-0.6,2.4-1c0.5-0.3,0.9-0.6,1.2-0.9
			c1.3-1.3,1.9-3.1,2.8-5.3c0.2-0.5,0.4-0.9,0.6-1.4c0.1-0.2,0.2-0.4,0.3-0.6c0.9-2.1,1.8-4.2,2.7-6.3c0.4-0.8,0.7-1.7,1.1-2.5
			c0.5-1.2,1.1-2.5,1.7-3.7c0.4-0.8,0.8-1.7,1.2-2.5c0.5-1,0.9-2,1.4-2.9c0.9-2,1.9-4,2.7-6.1c0,0,0-0.1,0.1-0.1c0.4-1,0.9-2,1.4-3
			c0.4-0.9,0.9-1.8,1.2-2.8c0.5-1.4,0.8-3.1,1.2-4.7c0.1,0,0.3-0.1,0.4-0.1c6-1.5,13.7-2.9,16.1,2.2C57.5,26,57.7,26.6,57.9,27.3z"
			/>
		<path class="st3" d="M57.9,27.3c-1,0.3-2,0.5-3,0.7c-2,0.3-4,0.6-6,1c-4,0.8-7.9,2-11,4.7c-0.2,0.2-0.5,0.3-0.8,0.3
			c-0.1,0-0.2,0-0.3-0.1c-2.2-1.6-5.1-2.2-7.8-2.6c-1.2-0.2-2.3-0.3-3.5-0.4c0.4-0.5,0.9-1,1.3-1.5c0.8,0,1.7,0.1,2.5,0.2
			c2.6,0.4,5.4,0.9,7.7,2.4c0.4-0.4,0.9-0.7,1.3-1c2.8-1.9,6-3.1,9.4-3.8c2.1-0.4,4.2-0.8,6.2-1.2c1.1-0.2,2.2-0.3,3.3-0.5
			C57.5,26,57.7,26.6,57.9,27.3z"/>
		<path class="st3" d="M57.2,33.5L57.2,33.5c-4.4,0.7-8.7,1.2-12.9,2.9c-4.1,1.7-7.9,3.9-11.4,6.7c0,0,0,0,0,0c-0.4,0.3-1,0-1.1-0.4
			c-0.7-2.6-3.1-4.7-5.3-6c-1.3-0.7-2.7-1.3-4.1-1.6c0.3-0.4,0.5-0.8,0.8-1.2c1.4,0.3,2.8,0.9,4,1.5c2.3,1.3,4.6,3.2,5.7,5.8
			c0.5-0.4,1-0.7,1.5-1.1c3.1-2.2,6.4-4.1,9.9-5.4c4-1.6,8.7-3,13-2c0.1,0,0.1,0,0.2,0.1C57.6,33,57.5,33.5,57.2,33.5z"/>
		<path class="st3" d="M53.7,41.2c-0.1,0.2-0.2,0.4-0.3,0.7c-0.2,0.5-0.4,0.9-0.6,1.4c-0.1,0-0.2,0-0.2,0c-3,0.4-5.8,1.1-8.7,2.1
			c-5.2,1.7-10.1,4.1-15,6.5c-0.1,0-0.2,0.1-0.3,0.1c-0.3,0.2-0.8-0.1-1-0.4c-1.5-2.3-2.8-4.8-4.5-7c-0.8-1.1-1.8-2.4-2.9-3.1
			c-0.4-0.3-0.9-0.6-1.4-0.6c0.1-0.2,0.2-0.4,0.3-0.6c0.1-0.2,0.2-0.4,0.4-0.6c0.2,0.1,0.4,0.1,0.6,0.2c1.4,0.6,2.5,1.7,3.5,2.9
			c1.9,2.3,3.3,4.9,5,7.3c0.5-0.2,0.9-0.5,1.4-0.7C37.2,45.4,45.5,41.2,53.7,41.2z"/>
		<path class="st3" d="M49.1,50.9c-0.2,0.5-0.5,0.9-0.7,1.4c-0.6,0.1-1.3,0.2-1.9,0.3c-2.4,0.4-4.8,1-7.1,1.8
			c-4.4,1.5-8.8,3.7-12.2,6.9c-0.5,0.4-1.2,0.3-1.5-0.3c-0.1-0.3-0.2-0.6-0.4-0.9c-1.1-2.4-3.2-4.6-5.1-6.2
			c-1.2-1.1-2.5-2.1-3.9-2.8c-0.8-0.4-1.7-0.7-2.5-1.1c0.2-0.4,0.4-0.8,0.6-1.2c0.9,0.1,1.8,0.5,2.6,0.9c1.5,0.8,3,1.8,4.3,3
			c1.8,1.5,3.6,3.4,4.9,5.5c0.2,0.4,0.5,0.8,0.7,1.2c3.5-3,7.7-5.1,11.9-6.6c2.5-0.8,5-1.5,7.6-1.8C47.3,50.8,48.2,50.9,49.1,50.9z"
			/>
		<path class="st3" d="M44.9,58.8c-0.5,0.8-1,1.7-1.5,2.5c-1.5,0.6-3,1.1-4.5,1.5c-5.5,1.4-11,2.6-16.2,4.8c-0.3,0.1-0.7,0-0.9-0.3
			c-0.1-0.3-0.3-0.6-0.5-0.8c-1.2-1.9-3.1-3.5-4.9-4.7c-1.5-1-3.8-2.5-5.8-2c0.1-0.3,0.1-0.6,0.2-0.9c1.8-0.7,4.4,0.8,5.9,1.6
			c2.1,1.3,4.4,2.9,5.8,5c0.1,0.1,0.2,0.2,0.2,0.3c5.3-2.2,10.9-3.4,16.4-5C41.2,60.3,43,59.5,44.9,58.8z"/>
	</g>
</g>
</svg>
