<?xml version="1.0" encoding="utf-8"?>
<!-- Generator: Adobe Illustrator 22.0.1, SVG Export Plug-In . SVG Version: 6.00 Build 0)  -->
<svg version="1.1" id="Lag_1" xmlns="http://www.w3.org/2000/svg" xmlns:xlink="http://www.w3.org/1999/xlink" x="0px" y="0px"
	 viewBox="0 0 100 100" style="enable-background:new 0 0 100 100;" xml:space="preserve">
<style type="text/css">
	.st0{fill:#46933E;}
	.st1{fill:#7DB44F;}
	.st2{fill:#417F3C;}
</style>
<g>
	<path class="st0" d="M86.1,51.4c6.5-10.5,1-15.8-6.9-20.8s-15.2-7.5-21.7,3c-5.8,9.4-12.7,23.8-5.3,32.3c1.5,1.7,1.9,4.1,1,6.2
		c-1.2,2.9-3.1,5.8-5.2,8l3.4,2.1c1-3.1,2.7-6.3,4.7-9.1c1.2-1.7,3.2-2.6,5.3-2.4C71.7,72,80.6,60.2,86.1,51.4z"/>
	<g>
		<path class="st1" d="M61.8,63.8c8.9,2.1,13.3-3.1,13.3-3.1c-6.1,4-12.3,1.4-12.3,1.4l3.7-6.2c8.7,3.3,13-2.3,13-2.3
			c-6.2,4-12.2,0.8-12.2,0.8l2.9-5.3C80,51.6,84,45.2,84,45.2c-6.1,5.3-13.2,2.5-13.2,2.5c0.3-1.1,5.9-11.1,5.9-11.1
			s-6.6,9.5-7.4,10.2c0,0-5.6-5.2-3.6-13c0,0-3.9,6.5,2.6,14.1l-3.4,4.9c0,0-5.5-4-4.7-11.3c0,0-3.1,6.3,3.7,12.7l-4,6.1
			c0,0-5.1-4.3-4.2-11.6c0,0-2.7,6.2,3.2,13.3c0,0-4.9,14.2-10.4,18.4l2.6,1.6C52.4,75.3,61.8,63.8,61.8,63.8z"/>
	</g>
</g>
<g>
	<path class="st2" d="M59.5,30C59.3,17.2,49.2,3.6,42.7,10.1c-3.5,3.5-17,7.4-16.9,20.3c0.1,11.4,2.1,27.9,12.9,31.2
		c2.2,0.7,3.8,2.5,4.2,4.8c0.5,3.2,0.5,6.8,0,9.9l4,0c-0.8-3.3-1.1-7-0.9-10.6c0.1-2.1,1.3-4.1,3.2-5C58.5,56.1,59.6,40.8,59.5,30z"
		/>
	<g>
		<path class="st1" d="M45.6,54.4c8.7-3.1,9.6-10.1,9.6-10.1c-3,6.9-9.6,8-9.6,8l-0.2-7.5c9.1-2,9.7-9.2,9.7-9.2
			c-3.1,6.9-9.8,7.6-9.8,7.6l-0.4-6.2c9.5-3.3,9.5-11.1,9.5-11.1c-2.3,8-9.8,9.6-9.8,9.6c-0.3-1.1-1-13-1-13s-0.4,11.9-0.7,13.1
			c0,0-7.5-1.4-10-9.4c0,0,0.2,7.8,9.8,10.9l-0.2,6.2c0,0-6.8-0.5-10-7.3c0,0,0.8,7.3,10,9l-0.1,7.5c0,0-6.6-1-9.8-7.8
			c0,0,1.1,6.9,9.8,9.9c0,0,3.5,15.2,1.2,21.9l3.1,0C44,69.6,45.6,54.4,45.6,54.4z"/>
	</g>
</g>
<g>
	<path class="st0" d="M38.5,49.7c-3.4-10.2-22.2-16.6-25.8-9.6c-1.9,3.7-4.4,8.3-1,18.5c3,9.1,8.8,21.8,18.3,21.6
		c1.9,0,3.7,1,4.6,2.8c1.2,2.4,2.2,5.3,2.5,8l3.2-1.1c-1.5-2.4-2.7-5.3-3.4-8.2c-0.5-1.7,0-3.6,1.3-4.8
		C44.4,70.8,41.4,58.3,38.5,49.7z"/>
	<g>
		<path class="st1" d="M33.7,72.7c6.1-4.7,5.1-10.5,5.1-10.5c-0.6,6.3-5.6,8.9-5.6,8.9L31,65.1c6.8-3.9,5.4-9.9,5.4-9.9
			c-0.7,6.3-6,8.6-6,8.6l-1.9-4.9c6.8-5.1,4.8-11.3,4.8-11.3c0.2,7-5.4,10.2-5.4,10.2c-0.5-0.8-4.1-10.2-4.1-10.2s2.7,9.7,2.8,10.6
			c0,0-6.4,0.8-10.4-4.9c0,0,2.1,6.2,10.6,6.2l1.4,5c0,0-5.6,1.3-9.9-3.3c0,0,2.5,5.6,10.3,4.6l1.9,6c0,0-5.6,0.9-9.8-3.7
			c0,0,2.6,5.3,10.4,5.4c0,0,6.7,11.3,6.5,17.2L40,90C36.2,85.4,33.7,72.7,33.7,72.7z"/>
	</g>
</g>
</svg>
