<?xml version="1.0" encoding="utf-8"?>
<!-- Generator: Adobe Illustrator 22.0.1, SVG Export Plug-In . SVG Version: 6.00 Build 0)  -->
<svg version="1.1" id="Lag_1" xmlns="http://www.w3.org/2000/svg" xmlns:xlink="http://www.w3.org/1999/xlink" x="0px" y="0px"
	 viewBox="0 0 100 100" style="enable-background:new 0 0 100 100;" xml:space="preserve">
<style type="text/css">
	.st0{fill:#FFE083;}
	.st1{fill:#F9D377;}
	.st2{fill:#FFEA9E;}
	.st3{fill:#E8BE6E;}
</style>
<g>
	<g>
		<rect x="10" y="57.5" class="st0" width="29.9" height="23.3"/>
		<polygon class="st1" points="39.9,80.8 55.4,63.2 55.4,39.9 39.9,57.5 		"/>
		<polygon class="st2" points="55.4,39.9 39.9,57.5 10,57.5 24.9,39.9 		"/>
		<g>
			<path class="st3" d="M15.2,62.6c-0.5-0.1-0.9,0.1-1.1,0.7c-0.1,0.5,0.1,1.2,0.6,1.3c0.8,0.1,1.4,0.7,1.7,1.5
				c0.4,1.2,2,0.7,1.7-0.5C17.6,64.1,16.5,62.9,15.2,62.6z"/>
			<path class="st3" d="M15.5,72.4c-0.3-0.7-0.3-1.4-0.1-2.1c0.4-1.3-1.3-1.8-1.7-0.5c-0.3,1.2-0.2,2.5,0.3,3.7
				C14.5,74.6,16,73.5,15.5,72.4z"/>
			<path class="st3" d="M19.9,72.6c-0.4-0.3-1-0.1-1.2,0.4c-0.3,0.5-0.1,1.1,0.3,1.4c0.4,0.3,0.4,0.9,0.3,1.4
				C19,77,20.6,77.6,21,76.3C21.4,74.9,20.9,73.5,19.9,72.6z"/>
			<path class="st3" d="M24.5,61.1c-1-0.7-1.8,1.1-0.9,1.8c0.7,0.5,1,1.3,0.9,2.3c-0.1,1.3,1.6,1.3,1.7,0
				C26.4,63.5,25.7,61.9,24.5,61.1z"/>
			<path class="st3" d="M24.9,69.8c-0.5-0.2-0.8-0.7-0.7-1.3c0.1-0.5-0.1-1.1-0.6-1.3c-0.4-0.1-1,0.2-1.1,0.7
				c-0.2,1.4,0.3,3,1.5,3.6c0.4,0.2,0.9,0.2,1.2-0.4C25.4,70.8,25.3,70,24.9,69.8z"/>
			<path class="st3" d="M32.8,69c0.3-1.4-0.3-3-1.5-3.6c-0.4-0.2-0.9-0.1-1.2,0.4c-0.2,0.4-0.1,1.2,0.3,1.4c0.4,0.2,0.8,0.7,0.6,1.3
				C30.8,69.7,32.5,70.3,32.8,69z"/>
			<path class="st3" d="M36,59.1c-0.3-0.4-0.7-0.7-1.2-0.4c-0.4,0.3-0.6,1-0.3,1.4c0.5,0.8,1,1.5,1.5,2.3c0.3,0.4,0.7,0.7,1.2,0.4
				c0.4-0.3,0.6-1,0.3-1.4C37,60.6,36.5,59.8,36,59.1z"/>
			<path class="st3" d="M36,71.6c-0.4-0.3-0.6-1-0.5-1.6c0.3-1.3-1.4-1.8-1.7-0.5c-0.4,1.5,0.2,3,1.3,3.9C36,74.1,36.9,72.4,36,71.6
				z"/>
			<path class="st3" d="M28.2,75C28.2,75,28.2,75,28.2,75C28.2,75,28.1,75,28.2,75C28.1,75,28.1,75,28.2,75
				c-0.1-0.1-0.1-0.2-0.1-0.2c0,0,0-0.1,0-0.1c0,0,0,0,0,0c0,0,0,0,0-0.1c0,0,0,0,0,0c0.8-0.9-0.4-2.4-1.2-1.4
				c-0.9,1-0.7,2.8,0.4,3.6C28.2,77.5,29.1,75.7,28.2,75z"/>
			<path class="st3" d="M27.6,59c-0.5,0-0.9,0.4-0.9,1c0,0.5,0.4,1,0.9,1c0.1,0,0.1,0,0.2,0c0,0,0,0,0,0c0,0,0.1,0,0.1,0
				c-0.1,0,0.1,0.1,0.1,0.1c0,0,0,0,0,0c0,0,0.1,0.1,0.1,0.1c0,0,0,0.1,0.1,0.1c0,0,0,0,0,0c0,0,0,0,0,0.1c0.1,0.5,0.6,0.9,1.1,0.7
				c0.5-0.1,0.7-0.7,0.6-1.3C29.7,59.9,28.7,59,27.6,59z"/>
			<path class="st3" d="M19.9,62.1c0.3-0.4,0.4-1.1,0-1.4c0,0-0.2-0.2-0.2-0.2c0,0,0-0.1-0.1-0.1c0,0,0,0,0-0.1c0,0,0-0.1,0-0.1
				c0-0.1,0-0.1,0-0.2c0,0.1,0,0.1,0,0c0-0.1,0-0.1,0.1-0.2c0.2-0.5-0.2-1.1-0.6-1.3c-0.5-0.2-0.9,0.2-1.1,0.7c-0.3,1,0,2.2,0.7,2.8
				C19,62.5,19.5,62.6,19.9,62.1z"/>
			<path class="st3" d="M32.8,75.3c-0.5,0.1-0.7,0.7-0.6,1.3c0.1,0.6,0.6,0.8,1.1,0.7c0,0,0,0,0,0c0,0,0,0,0,0c0,0,0,0,0,0
				c0,0,0.1,0,0.1,0.1c0,0,0,0,0,0c0,0,0,0,0,0c0,0,0,0,0,0c0,0,0,0,0,0c0,0,0,0,0,0c0,0,0,0,0,0c0,0,0,0,0,0c0,0.6,0.4,1,0.9,1
				c0.5,0,0.9-0.5,0.9-1C35.2,76,34,75,32.8,75.3z"/>
			<path class="st3" d="M14.9,77.3c0,0-0.1,0-0.1,0c0,0,0,0,0,0c0,0,0,0,0,0c0,0,0,0,0,0c0,0,0,0,0,0c0,0,0-0.1,0-0.1
				c0-0.6-0.4-1-0.9-1c-0.5,0-0.8,0.5-0.9,1c-0.1,1.2,0.9,2.4,1.9,2.2c0.5-0.1,0.9-0.4,0.9-1C15.8,77.9,15.4,77.3,14.9,77.3z
				 M14.7,77.3C14.7,77.3,14.7,77.3,14.7,77.3C14.7,77.3,14.7,77.3,14.7,77.3C14.7,77.3,14.7,77.3,14.7,77.3z M14.7,77.3
				C14.7,77.3,14.7,77.3,14.7,77.3C14.7,77.3,14.7,77.3,14.7,77.3z"/>
			<path class="st3" d="M42,59.1C42,59.1,42,59.1,42,59.1C42,59.2,42.1,59.1,42,59.1C42.1,59.1,42.1,59.1,42,59.1c0.1,0,0.1,0,0.1,0
				c0,0,0,0,0,0c0,0,0,0,0,0c0,0,0,0,0,0c0.1,0,0.1,0,0,0c0,0,0,0,0,0c0.4,0.3,0.9,0.4,1.2,0c0.3-0.4,0.4-1.1,0-1.4
				c-0.8-0.8-1.8-0.8-2.6,0c-0.4,0.4-0.3,1.1,0,1.4C41.2,59.5,41.7,59.4,42,59.1z M42.2,59.1C42.2,59.1,42.2,59.1,42.2,59.1
				C42.2,59.1,42.2,59.1,42.2,59.1C42.2,59.1,42.2,59.1,42.2,59.1z M42,59.1C42,59.1,42,59.1,42,59.1C42,59.1,42,59.1,42,59.1
				C42,59.1,42,59.1,42,59.1z"/>
			<path class="st3" d="M42.5,64c-0.3-0.3-0.2-0.8-0.1-1.2c0.2-0.5-0.2-1.1-0.6-1.3c-0.5-0.2-0.9,0.2-1.1,0.7
				c-0.3,1.1-0.1,2.3,0.6,3.2c0.3,0.4,0.9,0.4,1.2,0C42.9,65,42.8,64.4,42.5,64z"/>
			<path class="st3" d="M42.6,66.8c-0.4,0.3-0.6,0.9-0.3,1.4c0.4,0.6,0.5,1.2,0.3,2c-0.4,1.3,1.3,1.8,1.7,0.5
				c0.3-1.2,0.2-2.5-0.5-3.5C43.6,66.7,43.1,66.5,42.6,66.8z"/>
			<path class="st3" d="M47.8,56.4c-0.5-0.1-0.9,0.1-1.1,0.7c-0.1,0.5,0.1,1.2,0.6,1.3c0.1,0,0.2,0.1,0.3,0.1c0,0,0,0,0,0
				c0.1,0,0.1,0.1,0.2,0.1c0,0,0,0,0,0c-0.1,0.4,0.1,1,0.4,1.2c0.4,0.3,0.9,0.1,1.2-0.4c0.1-0.1,0.2-0.3,0.3-0.4
				c0.2-0.3,0.2-0.8,0-1C49.3,57.2,48.6,56.6,47.8,56.4z"/>
			<path class="st3" d="M47.7,62.5C47.7,62.5,47.7,62.5,47.7,62.5c-0.1,0-0.2-0.1-0.2-0.1c0,0,0,0,0,0c0,0-0.1-0.1-0.1-0.1
				c0,0,0,0,0,0c0,0,0-0.1-0.1-0.2c0-0.1,0-0.2,0-0.2c0.1-0.6-0.4-1-0.9-1c-0.5,0-0.8,0.5-0.9,1c-0.1,1.2,0.6,2.4,1.6,2.6
				c0.5,0.1,0.9-0.2,1.1-0.7C48.4,63.3,48.2,62.7,47.7,62.5z"/>
			<path class="st3" d="M47.4,67.2C47.4,67.2,47.4,67.2,47.4,67.2c0.2-0.5,0-1.1-0.4-1.3c-0.4-0.3-0.9-0.1-1.2,0.4
				c-0.6,1.1,0,2.8,1.1,3c0.5,0.1,0.9-0.1,1.1-0.7C48.2,68,47.9,67.3,47.4,67.2z M47.4,67.2C47.4,67.2,47.4,67.2,47.4,67.2
				C47.4,67.2,47.4,67.2,47.4,67.2z M47.4,67.2C47.4,67.1,47.4,67.1,47.4,67.2L47.4,67.2z M47.4,67.3C47.4,67.3,47.4,67.3,47.4,67.3
				C47.5,67.3,47.4,67.3,47.4,67.3z"/>
			<path class="st3" d="M46.1,54.8c0.4-0.1,0.7-0.6,0.6-1.1c0,0,0,0,0,0c0.2,0,0.3-0.1,0.5-0.3c0.2-0.2,0.3-0.5,0.3-0.7
				c0-0.5-0.4-1.1-0.9-1c-0.3,0-0.5,0.1-0.7,0.2c-0.2,0.1-0.4,0.4-0.5,0.6c-0.3,0.5-0.4,1-0.3,1.6C45.1,54.7,45.7,55,46.1,54.8z
				 M46.7,53.7C46.7,53.7,46.7,53.7,46.7,53.7C46.7,53.8,46.7,53.8,46.7,53.7z M46.8,53.6C46.8,53.6,46.8,53.6,46.8,53.6L46.8,53.6z
				 M46.7,53.7C46.7,53.7,46.7,53.7,46.7,53.7c0,0-0.1,0-0.1,0C46.6,53.7,46.7,53.7,46.7,53.7z"/>
			<path class="st3" d="M49.1,52.3c0.2,0.5,0.8,0.6,1.2,0.4c0.4-0.3,0.5-0.9,0.3-1.4c-0.2-0.4,0-0.9,0.2-1.2c0.8-1-0.5-2.4-1.2-1.4
				C48.8,49.6,48.6,51,49.1,52.3z"/>
			<path class="st3" d="M51.7,48.3C51.7,48.3,51.7,48.3,51.7,48.3c0.1,0,0.1,0,0.1,0c0,0,0,0,0.1,0c0,0,0.1,0.1,0.1,0.1c0,0,0,0,0,0
				c0,0,0.1,0.1,0.1,0.1c0,0,0,0,0,0c0,0.1,0.1,0.2,0.1,0.2c0.2,0.5,0.8,0.6,1.2,0.4c0.4-0.3,0.5-0.9,0.3-1.4
				c-0.4-0.9-1.2-1.5-2.1-1.5c-0.5,0-0.9,0.5-0.9,1C50.8,47.9,51.2,48.3,51.7,48.3z"/>
			<path class="st3" d="M53.4,55.4c0.2-0.5-0.2-1.1-0.6-1.3c-0.5-0.2-0.9,0.2-1.1,0.7c-0.4,1-0.1,2.3,0.6,3c0.4,0.4,0.9,0.4,1.2,0
				c0.3-0.4,0.4-1.1,0-1.4C53.3,56.2,53.2,55.9,53.4,55.4z"/>
			<path class="st3" d="M51.1,61.9c0.2,0.4-0.1,0.7-0.4,0.7c-0.5,0.1-0.7,0.8-0.6,1.3c0.1,0.6,0.6,0.8,1.1,0.7
				c1.5-0.3,2.1-2.3,1.5-3.7C52.1,59.8,50.6,60.8,51.1,61.9z"/>
			<path class="st3" d="M20.2,52.6C20.3,52.6,20.2,52.6,20.2,52.6c-0.1,0-0.1,0-0.1,0c-0.1,0-0.1,0-0.1,0c0,0-0.3-0.1-0.2-0.1
				c-0.1-0.1-0.1-0.1-0.2-0.2c-0.1-0.1-0.1-0.1-0.1-0.2c-0.3-1.3-2-0.7-1.7,0.5c0.4,1.6,1.9,2.3,3.2,1.7c0.4-0.2,0.5-1,0.3-1.4
				C21.1,52.5,20.6,52.4,20.2,52.6z"/>
			<path class="st3" d="M24.5,51.6c-1.1,0.4-0.6,2.4,0.5,2c0.6-0.2,1.3-0.2,1.8,0.3c0.4,0.3,0.9,0.4,1.2,0c0.3-0.4,0.4-1.1,0-1.4
				C27.1,51.5,25.8,51.1,24.5,51.6z"/>
			<path class="st3" d="M25.5,48.7c1.1,0,1.1-2,0-2c0,0-0.1,0-0.1,0c0,0,0,0-0.1,0c0,0,0,0-0.1,0c-0.1,0-0.1-0.1-0.2-0.1
				c0.2,0.1-0.2-0.3-0.1-0.1c0,0,0-0.1-0.1-0.1c0,0,0-0.1-0.1-0.2c-0.1-0.5-0.6-0.9-1.1-0.7c-0.5,0.1-0.7,0.7-0.6,1.3
				C23.5,47.8,24.4,48.7,25.5,48.7z"/>
			<path class="st3" d="M26.7,43.6c0,0,0.1,0,0.1,0c0,0,0,0,0,0c0,0,0,0,0,0c0,0,0.1,0,0.1,0c0,0,0,0,0,0c0,0,0.1,0.1,0.1,0.1
				c0,0,0,0,0,0c0,0,0,0,0,0c0,0,0,0,0,0.1c0.1,0.5,0.6,0.9,1.1,0.7c0.5-0.1,0.7-0.7,0.6-1.3c-0.3-1.2-1.5-2.1-2.5-1.6
				c-0.4,0.2-0.7,0.7-0.6,1.3C25.7,43.4,26.2,43.8,26.7,43.6z"/>
			<path class="st3" d="M32.4,51.4c0.5,0.1,0.9-0.5,0.9-1c0-0.6-0.4-1-0.9-1c0.1,0,0.1,0,0.1,0c0,0,0,0-0.1-0.1c0,0,0,0,0,0
				c0,0,0,0,0,0c0,0,0,0,0-0.1c0,0,0,0,0,0c0,0,0-0.1,0-0.1c0,0,0,0,0-0.1c0,0,0,0,0,0c0,0,0,0,0-0.1c0,0,0,0,0,0c0,0,0,0,0,0
				c0.2-0.5,0.1-1.1-0.3-1.3c-0.4-0.3-1-0.1-1.2,0.4C30.1,49.5,30.9,51.2,32.4,51.4z"/>
			<path class="st3" d="M32.2,48.9C32.2,48.9,32.2,48.9,32.2,48.9C32.2,48.9,32.2,48.9,32.2,48.9L32.2,48.9
				C32.2,48.9,32.2,48.9,32.2,48.9z"/>
			<path class="st3" d="M32.2,48.9C32.2,49.1,32.3,48.8,32.2,48.9L32.2,48.9z"/>
			<path class="st3" d="M34.5,45.6c0.5,0.2,1,0.7,1.2,1.3c0.2,0.5,0.6,0.9,1.1,0.7c0.4-0.1,0.8-0.7,0.6-1.3
				c-0.4-1.3-1.2-2.3-2.4-2.7C33.9,43.2,33.4,45.2,34.5,45.6z"/>
			<path class="st3" d="M38.4,49.9c0,0-0.1,0-0.1,0c0,0-0.1,0-0.1,0c-0.1,0-0.1-0.1-0.2-0.1c0,0,0,0,0,0c0,0,0,0,0,0
				c0,0-0.1-0.1-0.1-0.1c0,0,0,0,0,0c0,0,0,0,0-0.1c0,0,0-0.1-0.1-0.1c0-0.1,0-0.1,0-0.2c-0.1-0.5-0.6-0.9-1.1-0.7
				c-0.5,0.1-0.7,0.7-0.6,1.3c0.2,1.1,1,1.9,1.9,2.2c0.5,0.1,0.9-0.2,1.1-0.7C39.2,50.6,38.9,50,38.4,49.9z"/>
			<path class="st3" d="M42.3,42.3c-0.5,0-0.9,0.5-0.9,1c0,0.6,0.4,1,0.9,1c-0.2,0,0.3,0.1,0.1,0c0,0,0.1,0.1,0.1,0.1c0,0,0,0,0.1,0
				c0,0,0,0,0,0c0,0,0.1,0.1,0.1,0.1c0,0,0,0,0,0c0,0,0,0,0,0.1c0,0,0,0.1,0.1,0.1c0-0.1,0,0.1,0,0.2c0.1,0.5,0.6,0.9,1.1,0.7
				c0.5-0.2,0.7-0.7,0.6-1.3C44.3,43.2,43.4,42.4,42.3,42.3z"/>
			<path class="st3" d="M47.4,44.1c0.3,0.5,0.8,0.7,1.2,0.4c0.4-0.3,0.6-0.9,0.3-1.4c-0.3-0.5-0.6-1-0.9-1.5
				c-0.3-0.5-0.8-0.7-1.2-0.4c-0.4,0.3-0.6,0.9-0.3,1.4C46.7,43,47,43.6,47.4,44.1z"/>
			<path class="st3" d="M43,49.9c0.5-0.1,0.7-0.8,0.6-1.3c-0.1-0.5-0.5-0.7-0.9-0.7c0-0.5-0.4-0.9-0.9-0.9c-0.5,0-0.9,0.5-0.9,1
				c0,0.5,0.2,1.1,0.5,1.4C41.9,49.9,42.4,50,43,49.9z M42.7,48C42.8,48.2,42.7,48.1,42.7,48L42.7,48z M42.7,48
				C42.7,48,42.7,48,42.7,48C42.8,48,42.8,48,42.7,48z M42.6,47.9C42.6,47.9,42.6,47.9,42.6,47.9C42.6,47.9,42.5,47.9,42.6,47.9
				C42.5,47.9,42.6,47.9,42.6,47.9z"/>
			<path class="st3" d="M31.6,43.8c0.3-0.1,0.6-0.1,0.9-0.2c0.5-0.1,0.7-0.8,0.6-1.3c-0.1-0.6-0.6-0.8-1.1-0.7
				c-0.3,0.1-0.6,0.1-0.9,0.2c-0.5,0.1-0.7,0.8-0.6,1.3C30.7,43.7,31.2,44,31.6,43.8z"/>
			<path class="st3" d="M35.6,53.3c-0.2-0.5-0.8-0.6-1.2-0.4c-0.2,0.1-0.3,0.4-0.4,0.6c-0.1,0.3,0,0.5,0.1,0.8
				c0.1,0.3,0.4,0.6,0.6,0.8c0.4,0.2,0.7,0.3,1.1,0.2c0.5-0.1,0.7-0.8,0.6-1.3c-0.1-0.3-0.2-0.5-0.4-0.6
				C35.9,53.4,35.7,53.3,35.6,53.3C35.6,53.3,35.6,53.3,35.6,53.3z M35.5,53.3C35.5,53.3,35.5,53.3,35.5,53.3c0,0-0.1,0-0.1,0
				C35.4,53.3,35.5,53.3,35.5,53.3z"/>
		</g>
	</g>
	<g>
		<rect x="43.1" y="58.4" class="st0" width="29.9" height="23.3"/>
		<polygon class="st1" points="73,81.8 88.5,64.2 88.5,40.8 73,58.4 		"/>
		<polygon class="st2" points="88.5,40.8 73,58.4 43.1,58.4 58.1,40.8 		"/>
		<g>
			<path class="st3" d="M48.3,63.5c-0.5-0.1-0.9,0.1-1.1,0.7c-0.1,0.5,0.1,1.2,0.6,1.3c0.8,0.1,1.4,0.7,1.7,1.5
				c0.4,1.2,2,0.7,1.7-0.5C50.8,65,49.7,63.8,48.3,63.5z"/>
			<path class="st3" d="M48.7,73.3c-0.3-0.7-0.3-1.4-0.1-2.1c0.4-1.3-1.3-1.8-1.7-0.5c-0.3,1.2-0.2,2.5,0.3,3.7
				C47.7,75.5,49.2,74.5,48.7,73.3z"/>
			<path class="st3" d="M53,73.5c-0.4-0.3-1-0.1-1.2,0.4c-0.3,0.5-0.1,1.1,0.3,1.4c0.4,0.3,0.4,0.9,0.3,1.4
				c-0.3,1.3,1.3,1.8,1.7,0.5C54.5,75.8,54,74.4,53,73.5z"/>
			<path class="st3" d="M57.6,62c-1-0.7-1.8,1.1-0.9,1.8c0.7,0.5,1,1.3,0.9,2.3c-0.1,1.3,1.6,1.3,1.7,0C59.5,64.4,58.8,62.8,57.6,62
				z"/>
			<path class="st3" d="M58,70.7c-0.5-0.2-0.8-0.7-0.7-1.3c0.1-0.5-0.1-1.1-0.6-1.3c-0.4-0.1-1,0.2-1.1,0.7c-0.2,1.4,0.3,3,1.5,3.6
				c0.4,0.2,0.9,0.2,1.2-0.4C58.5,71.7,58.4,71,58,70.7z"/>
			<path class="st3" d="M65.9,69.9c0.3-1.4-0.3-3-1.5-3.6c-0.4-0.2-0.9-0.1-1.2,0.4c-0.2,0.4-0.1,1.2,0.3,1.4
				c0.4,0.2,0.8,0.7,0.6,1.3C64,70.6,65.7,71.2,65.9,69.9z"/>
			<path class="st3" d="M69.1,60c-0.3-0.4-0.7-0.7-1.2-0.4c-0.4,0.3-0.6,1-0.3,1.4c0.5,0.8,1,1.5,1.5,2.3c0.3,0.4,0.7,0.7,1.2,0.4
				c0.4-0.3,0.6-1,0.3-1.4C70.1,61.5,69.6,60.7,69.1,60z"/>
			<path class="st3" d="M69.1,72.6c-0.4-0.3-0.6-1-0.5-1.6c0.3-1.3-1.4-1.8-1.7-0.5c-0.4,1.5,0.2,3,1.3,3.9
				C69.2,75,70,73.3,69.1,72.6z"/>
			<path class="st3" d="M61.3,76C61.3,76,61.3,76,61.3,76C61.3,75.9,61.3,75.9,61.3,76C61.3,75.9,61.3,75.9,61.3,76
				c-0.1-0.1-0.1-0.2-0.1-0.2c0,0,0-0.1,0-0.1c0,0,0,0,0,0c0,0,0,0,0-0.1c0,0,0,0,0,0c0.8-0.9-0.4-2.4-1.2-1.4
				c-0.9,1-0.7,2.8,0.4,3.6C61.4,78.4,62.3,76.7,61.3,76z"/>
			<path class="st3" d="M60.8,60c-0.5,0-0.9,0.4-0.9,1c0,0.5,0.4,1,0.9,1c0.1,0,0.1,0,0.2,0c0,0,0,0,0,0c0,0,0.1,0,0.1,0
				c-0.1,0,0.1,0.1,0.1,0.1c0,0,0,0,0,0c0,0,0.1,0.1,0.1,0.1c0,0,0,0.1,0.1,0.1c0,0,0,0,0,0c0,0,0,0,0,0.1c0.1,0.5,0.6,0.9,1.1,0.7
				c0.5-0.1,0.7-0.7,0.6-1.3C62.8,60.8,61.8,59.9,60.8,60z"/>
			<path class="st3" d="M53,63c0.3-0.4,0.4-1.1,0-1.4c0,0-0.2-0.2-0.2-0.2c0,0,0-0.1-0.1-0.1c0,0,0,0,0-0.1c0,0,0-0.1,0-0.1
				c0-0.1,0-0.1,0-0.2c0,0.1,0,0.1,0,0c0-0.1,0-0.1,0.1-0.2c0.2-0.5-0.2-1.1-0.6-1.3c-0.5-0.2-0.9,0.2-1.1,0.7c-0.3,1,0,2.2,0.7,2.8
				C52.1,63.4,52.7,63.5,53,63z"/>
			<path class="st3" d="M66,76.2c-0.5,0.1-0.7,0.7-0.6,1.3c0.1,0.6,0.6,0.8,1.1,0.7c0,0,0,0,0,0c0,0,0,0,0,0c0,0,0,0,0,0
				c0,0,0.1,0,0.1,0.1c0,0,0,0,0,0c0,0,0,0,0,0c0,0,0,0,0,0c0,0,0,0,0,0c0,0,0,0,0,0c0,0,0,0,0,0c0,0,0,0,0,0c0,0.6,0.4,1,0.9,1
				c0.5,0,0.9-0.5,0.9-1C68.4,76.9,67.2,75.9,66,76.2z"/>
			<path class="st3" d="M48,78.2c0,0-0.1,0-0.1,0c0,0,0,0,0,0c0,0,0,0,0,0c0,0,0,0,0,0c0,0,0,0,0,0c0,0,0-0.1,0-0.1
				c0-0.6-0.4-1-0.9-1c-0.5,0-0.8,0.5-0.9,1C46,79.3,47,80.4,48,80.3c0.5-0.1,0.9-0.4,0.9-1C48.9,78.8,48.5,78.2,48,78.2z
				 M47.8,78.2C47.8,78.2,47.9,78.2,47.8,78.2C47.9,78.2,47.8,78.2,47.8,78.2C47.8,78.2,47.8,78.2,47.8,78.2z M47.8,78.2
				C47.8,78.2,47.8,78.2,47.8,78.2C47.8,78.2,47.8,78.2,47.8,78.2z"/>
			<path class="st3" d="M75.2,60C75.2,60,75.2,60,75.2,60C75.1,60.1,75.2,60,75.2,60C75.2,60,75.2,60,75.2,60c0.1,0,0.1,0,0.1,0
				c0,0,0,0,0,0c0,0,0,0,0,0c0,0,0,0,0,0c0.1,0,0.1,0,0,0c0,0,0,0,0,0c0.4,0.3,0.9,0.4,1.2,0c0.3-0.4,0.4-1.1,0-1.4
				c-0.8-0.8-1.8-0.8-2.6,0c-0.4,0.4-0.3,1.1,0,1.4C74.3,60.4,74.8,60.3,75.2,60z M75.4,60C75.4,60,75.4,60,75.4,60
				C75.4,60,75.4,60,75.4,60C75.4,60,75.4,60,75.4,60z M75.2,60C75.2,60,75.2,60,75.2,60C75.2,60,75.2,60,75.2,60
				C75.2,60,75.2,60,75.2,60z"/>
			<path class="st3" d="M75.7,64.9c-0.3-0.3-0.2-0.8-0.1-1.2c0.2-0.5-0.2-1.1-0.6-1.3c-0.5-0.2-0.9,0.2-1.1,0.7
				c-0.3,1.1-0.1,2.3,0.6,3.2c0.3,0.4,0.9,0.4,1.2,0C76,65.9,76,65.3,75.7,64.9z"/>
			<path class="st3" d="M75.8,67.7c-0.4,0.3-0.6,0.9-0.3,1.4c0.4,0.6,0.5,1.2,0.3,2c-0.4,1.3,1.3,1.8,1.7,0.5
				c0.3-1.2,0.2-2.5-0.5-3.5C76.7,67.6,76.2,67.4,75.8,67.7z"/>
			<path class="st3" d="M80.9,57.3c-0.5-0.1-0.9,0.1-1.1,0.7c-0.1,0.5,0.1,1.2,0.6,1.3c0.1,0,0.2,0.1,0.3,0.1c0,0,0,0,0,0
				c0.1,0,0.1,0.1,0.2,0.1c0,0,0,0,0,0c-0.1,0.4,0.1,1,0.4,1.2c0.4,0.3,0.9,0.1,1.2-0.4c0.1-0.1,0.2-0.3,0.3-0.4
				c0.2-0.3,0.2-0.8,0-1C82.5,58.1,81.8,57.5,80.9,57.3z"/>
			<path class="st3" d="M80.8,63.5C80.8,63.4,80.8,63.4,80.8,63.5c-0.1,0-0.2-0.1-0.2-0.1c0,0,0,0,0,0c0,0-0.1-0.1-0.1-0.1
				c0,0,0,0,0,0c0,0,0-0.1-0.1-0.2c0-0.1,0-0.2,0-0.2c0.1-0.6-0.4-1-0.9-1c-0.5,0-0.8,0.5-0.9,1c-0.1,1.2,0.6,2.4,1.6,2.6
				c0.5,0.1,0.9-0.2,1.1-0.7C81.6,64.2,81.3,63.6,80.8,63.5z"/>
			<path class="st3" d="M80.6,68.1C80.6,68.1,80.6,68.1,80.6,68.1c0.2-0.5,0-1.1-0.4-1.3c-0.4-0.3-0.9-0.1-1.2,0.4
				c-0.6,1.1,0,2.8,1.1,3c0.5,0.1,0.9-0.1,1.1-0.7C81.3,68.9,81,68.2,80.6,68.1z M80.5,68.1C80.5,68.1,80.5,68.1,80.5,68.1
				C80.6,68.1,80.6,68.1,80.5,68.1z M80.5,68.1C80.5,68,80.5,68,80.5,68.1L80.5,68.1z M80.5,68.2C80.5,68.2,80.5,68.2,80.5,68.2
				C80.6,68.2,80.6,68.2,80.5,68.2z"/>
			<path class="st3" d="M79.3,55.7c0.4-0.1,0.7-0.6,0.6-1.1c0,0,0,0,0,0c0.2,0,0.3-0.1,0.5-0.3c0.2-0.2,0.3-0.5,0.3-0.7
				c0-0.5-0.4-1.1-0.9-1c-0.3,0-0.5,0.1-0.7,0.2c-0.2,0.1-0.4,0.4-0.5,0.6c-0.3,0.5-0.4,1-0.3,1.6C78.3,55.6,78.8,55.9,79.3,55.7z
				 M79.9,54.6C79.9,54.6,79.9,54.6,79.9,54.6C79.9,54.7,79.9,54.7,79.9,54.6z M79.9,54.6C79.9,54.6,79.9,54.6,79.9,54.6L79.9,54.6z
				 M79.9,54.6C79.9,54.6,79.9,54.6,79.9,54.6c0,0-0.1,0-0.1,0C79.8,54.6,79.8,54.6,79.9,54.6z"/>
			<path class="st3" d="M82.3,53.2c0.2,0.5,0.8,0.6,1.2,0.4c0.4-0.3,0.5-0.9,0.3-1.4c-0.2-0.4,0-0.9,0.2-1.2c0.8-1-0.5-2.4-1.2-1.4
				C81.9,50.5,81.8,51.9,82.3,53.2z"/>
			<path class="st3" d="M84.8,49.2C84.8,49.2,84.9,49.2,84.8,49.2c0.1,0,0.1,0,0.1,0c0,0,0,0,0.1,0c0,0,0.1,0.1,0.1,0.1c0,0,0,0,0,0
				c0,0,0.1,0.1,0.1,0.1c0,0,0,0,0,0c0,0.1,0.1,0.2,0.1,0.2c0.2,0.5,0.8,0.6,1.2,0.4c0.4-0.3,0.5-0.9,0.3-1.4
				c-0.4-0.9-1.2-1.5-2.1-1.5c-0.5,0-0.9,0.5-0.9,1C83.9,48.8,84.3,49.2,84.8,49.2z"/>
			<path class="st3" d="M86.5,56.4c0.2-0.5-0.2-1.1-0.6-1.3c-0.5-0.2-0.9,0.2-1.1,0.7c-0.4,1-0.1,2.3,0.6,3c0.4,0.4,0.9,0.4,1.2,0
				c0.3-0.4,0.4-1.1,0-1.4C86.4,57.1,86.4,56.8,86.5,56.4z"/>
			<path class="st3" d="M84.3,62.9c0.2,0.4-0.1,0.7-0.4,0.7c-0.5,0.1-0.7,0.8-0.6,1.3c0.1,0.6,0.6,0.8,1.1,0.7
				c1.5-0.3,2.1-2.3,1.5-3.7C85.2,60.7,83.7,61.7,84.3,62.9z"/>
			<path class="st3" d="M53.3,53.5C53.4,53.5,53.4,53.5,53.3,53.5c-0.1,0-0.1,0-0.1,0c-0.1,0-0.1,0-0.1,0c0,0-0.3-0.1-0.2-0.1
				c-0.1-0.1-0.1-0.1-0.2-0.2c-0.1-0.1-0.1-0.1-0.1-0.2c-0.3-1.3-2-0.7-1.7,0.5c0.4,1.6,1.9,2.3,3.2,1.7c0.4-0.2,0.5-1,0.3-1.4
				C54.3,53.4,53.8,53.3,53.3,53.5z"/>
			<path class="st3" d="M57.7,52.5c-1.1,0.4-0.6,2.4,0.5,2c0.6-0.2,1.3-0.2,1.8,0.3c0.4,0.3,0.9,0.4,1.2,0c0.3-0.4,0.4-1.1,0-1.4
				C60.2,52.4,58.9,52,57.7,52.5z"/>
			<path class="st3" d="M58.6,49.6c1.1,0,1.1-2,0-2c0,0-0.1,0-0.1,0c0,0,0,0-0.1,0c0,0,0,0-0.1,0c-0.1,0-0.1-0.1-0.2-0.1
				c0.2,0.1-0.2-0.3-0.1-0.1c0,0,0-0.1-0.1-0.1c0,0,0-0.1-0.1-0.2c-0.1-0.5-0.6-0.9-1.1-0.7c-0.5,0.1-0.7,0.7-0.6,1.3
				C56.6,48.8,57.5,49.6,58.6,49.6z"/>
			<path class="st3" d="M59.8,44.5c0,0,0.1,0,0.1,0c0,0,0,0,0,0c0,0,0,0,0,0c0,0,0.1,0,0.1,0c0,0,0,0,0,0c0,0,0.1,0.1,0.1,0.1
				c0,0,0,0,0,0c0,0,0,0,0,0c0,0,0,0,0,0.1c0.1,0.5,0.6,0.9,1.1,0.7c0.5-0.1,0.7-0.7,0.6-1.3c-0.3-1.2-1.5-2.1-2.5-1.6
				c-0.4,0.2-0.7,0.7-0.6,1.3C58.8,44.3,59.4,44.7,59.8,44.5z"/>
			<path class="st3" d="M65.5,52.3c0.5,0.1,0.9-0.5,0.9-1c0-0.6-0.4-1-0.9-1c0.1,0,0.1,0,0.1,0c0,0,0,0-0.1-0.1c0,0,0,0,0,0
				c0,0,0,0,0,0c0,0,0,0,0-0.1c0,0,0,0,0,0c0,0,0-0.1,0-0.1c0,0,0,0,0-0.1c0,0,0,0,0,0c0,0,0,0,0-0.1c0,0,0,0,0,0c0,0,0,0,0,0
				c0.2-0.5,0.1-1.1-0.3-1.3c-0.4-0.3-1-0.1-1.2,0.4C63.2,50.4,64.1,52.1,65.5,52.3z"/>
			<path class="st3" d="M65.4,49.8C65.4,49.8,65.4,49.8,65.4,49.8C65.4,49.8,65.4,49.8,65.4,49.8L65.4,49.8
				C65.4,49.8,65.4,49.8,65.4,49.8z"/>
			<path class="st3" d="M65.4,49.8C65.4,50,65.4,49.7,65.4,49.8L65.4,49.8z"/>
			<path class="st3" d="M67.6,46.5c0.5,0.2,1,0.7,1.2,1.3c0.2,0.5,0.6,0.9,1.1,0.7c0.4-0.1,0.8-0.7,0.6-1.3
				c-0.4-1.3-1.2-2.3-2.4-2.7C67,44.2,66.6,46.1,67.6,46.5z"/>
			<path class="st3" d="M71.6,50.8c0,0-0.1,0-0.1,0c0,0-0.1,0-0.1,0c-0.1,0-0.1-0.1-0.2-0.1c0,0,0,0,0,0c0,0,0,0,0,0
				c0,0-0.1-0.1-0.1-0.1c0,0,0,0,0,0c0,0,0,0,0-0.1c0,0,0-0.1-0.1-0.1c0-0.1,0-0.1,0-0.2c-0.1-0.5-0.6-0.9-1.1-0.7
				c-0.5,0.1-0.7,0.7-0.6,1.3c0.2,1.1,1,1.9,1.9,2.2c0.5,0.1,0.9-0.2,1.1-0.7C72.3,51.5,72,50.9,71.6,50.8z"/>
			<path class="st3" d="M75.5,43.2c-0.5,0-0.9,0.5-0.9,1c0,0.6,0.4,1,0.9,1c-0.2,0,0.3,0.1,0.1,0c0,0,0.1,0.1,0.1,0.1c0,0,0,0,0.1,0
				c0,0,0,0,0,0c0,0,0.1,0.1,0.1,0.1c0,0,0,0,0,0c0,0,0,0,0,0.1c0,0,0,0.1,0.1,0.1c0-0.1,0,0.1,0,0.2c0.1,0.5,0.6,0.9,1.1,0.7
				c0.5-0.2,0.7-0.7,0.6-1.3C77.4,44.1,76.5,43.3,75.5,43.2z"/>
			<path class="st3" d="M80.5,45c0.3,0.5,0.8,0.7,1.2,0.4c0.4-0.3,0.6-0.9,0.3-1.4c-0.3-0.5-0.6-1-0.9-1.5c-0.3-0.5-0.8-0.7-1.2-0.4
				c-0.4,0.3-0.6,0.9-0.3,1.4C79.9,44,80.2,44.5,80.5,45z"/>
			<path class="st3" d="M76.1,50.8c0.5-0.1,0.7-0.8,0.6-1.3c-0.1-0.5-0.5-0.7-0.9-0.7c0-0.5-0.4-0.9-0.9-0.9c-0.5,0-0.9,0.5-0.9,1
				c0,0.5,0.2,1.1,0.5,1.4C75.1,50.8,75.6,50.9,76.1,50.8z M75.9,48.9C75.9,49.1,75.9,49,75.9,48.9L75.9,48.9z M75.9,48.9
				C75.9,48.9,75.9,48.9,75.9,48.9C75.9,48.9,75.9,48.9,75.9,48.9z M75.7,48.8C75.7,48.8,75.7,48.8,75.7,48.8
				C75.7,48.8,75.7,48.8,75.7,48.8C75.7,48.8,75.7,48.8,75.7,48.8z"/>
			<path class="st3" d="M64.8,44.8c0.3-0.1,0.6-0.1,0.9-0.2c0.5-0.1,0.7-0.8,0.6-1.3c-0.1-0.6-0.6-0.8-1.1-0.7
				c-0.3,0.1-0.6,0.1-0.9,0.2c-0.5,0.1-0.7,0.8-0.6,1.3C63.8,44.6,64.3,44.9,64.8,44.8z"/>
			<path class="st3" d="M68.7,54.2c-0.2-0.5-0.8-0.6-1.2-0.4c-0.2,0.1-0.3,0.4-0.4,0.6c-0.1,0.3,0,0.5,0.1,0.8
				c0.1,0.3,0.4,0.6,0.6,0.8c0.4,0.2,0.7,0.3,1.1,0.2c0.5-0.1,0.7-0.8,0.6-1.3c-0.1-0.3-0.2-0.5-0.4-0.6
				C69,54.3,68.9,54.2,68.7,54.2C68.7,54.2,68.7,54.2,68.7,54.2z M68.6,54.2C68.6,54.2,68.6,54.3,68.6,54.2c0,0-0.1,0-0.1,0
				C68.6,54.3,68.6,54.3,68.6,54.2z"/>
		</g>
	</g>
	<g>
		<rect x="25.9" y="32.8" class="st0" width="29.9" height="23.3"/>
		<polygon class="st1" points="55.7,56.2 71.2,38.6 71.2,15.2 55.7,32.8 		"/>
		<polygon class="st2" points="71.2,15.2 55.7,32.8 25.9,32.8 40.8,15.2 		"/>
		<g>
			<path class="st3" d="M31,37.9c-0.5-0.1-0.9,0.1-1.1,0.7c-0.1,0.5,0.1,1.2,0.6,1.3c0.8,0.1,1.4,0.7,1.7,1.5c0.4,1.2,2,0.7,1.7-0.5
				C33.5,39.4,32.4,38.2,31,37.9z"/>
			<path class="st3" d="M31.4,47.7c-0.3-0.7-0.3-1.4-0.1-2.1c0.4-1.3-1.3-1.8-1.7-0.5c-0.3,1.2-0.2,2.5,0.3,3.7
				C30.4,49.9,31.9,48.9,31.4,47.7z"/>
			<path class="st3" d="M35.7,47.9c-0.4-0.3-1-0.1-1.2,0.4c-0.3,0.5-0.1,1.1,0.3,1.4c0.4,0.3,0.4,0.9,0.3,1.4
				c-0.3,1.3,1.3,1.8,1.7,0.5C37.2,50.2,36.7,48.8,35.7,47.9z"/>
			<path class="st3" d="M40.3,36.4c-1-0.7-1.8,1.1-0.9,1.8c0.7,0.5,1,1.3,0.9,2.3c-0.1,1.3,1.6,1.3,1.7,0
				C42.2,38.8,41.5,37.2,40.3,36.4z"/>
			<path class="st3" d="M40.7,45.1c-0.5-0.2-0.8-0.7-0.7-1.3c0.1-0.5-0.1-1.1-0.6-1.3c-0.4-0.1-1,0.2-1.1,0.7
				c-0.2,1.4,0.3,3,1.5,3.6c0.4,0.2,0.9,0.2,1.2-0.4C41.2,46.1,41.1,45.4,40.7,45.1z"/>
			<path class="st3" d="M48.6,44.3c0.3-1.4-0.3-3-1.5-3.6c-0.4-0.2-0.9-0.1-1.2,0.4c-0.2,0.4-0.1,1.2,0.3,1.4
				c0.4,0.2,0.8,0.7,0.6,1.3C46.7,45,48.4,45.6,48.6,44.3z"/>
			<path class="st3" d="M51.8,34.4c-0.3-0.4-0.7-0.7-1.2-0.4c-0.4,0.3-0.6,1-0.3,1.4c0.5,0.8,1,1.5,1.5,2.3c0.3,0.4,0.7,0.7,1.2,0.4
				c0.4-0.3,0.6-1,0.3-1.4C52.8,35.9,52.3,35.1,51.8,34.4z"/>
			<path class="st3" d="M51.8,47c-0.4-0.3-0.6-1-0.5-1.6c0.3-1.3-1.4-1.8-1.7-0.5c-0.4,1.5,0.2,3,1.3,3.9
				C51.9,49.4,52.7,47.7,51.8,47z"/>
			<path class="st3" d="M44,50.4C44,50.4,44,50.4,44,50.4C44,50.3,44,50.3,44,50.4C44,50.3,44,50.3,44,50.4C44,50.3,44,50.2,44,50.2
				c0,0,0-0.1,0-0.1c0,0,0,0,0,0c0,0,0,0,0-0.1c0,0,0,0,0,0c0.8-0.9-0.4-2.4-1.2-1.4c-0.9,1-0.7,2.8,0.4,3.6
				C44.1,52.8,45,51.1,44,50.4z"/>
			<path class="st3" d="M43.5,34.4c-0.5,0-0.9,0.4-0.9,1c0,0.5,0.4,1,0.9,1c0.1,0,0.1,0,0.2,0c0,0,0,0,0,0c0,0,0.1,0,0.1,0
				c-0.1,0,0.1,0.1,0.1,0.1c0,0,0,0,0,0c0,0,0.1,0.1,0.1,0.1c0,0,0,0.1,0.1,0.1c0,0,0,0,0,0c0,0,0,0,0,0.1c0.1,0.5,0.6,0.9,1.1,0.7
				c0.5-0.1,0.7-0.7,0.6-1.3C45.5,35.2,44.6,34.3,43.5,34.4z"/>
			<path class="st3" d="M35.7,37.4c0.3-0.4,0.4-1.1,0-1.4c0,0-0.2-0.2-0.2-0.2c0,0,0-0.1-0.1-0.1c0,0,0,0,0-0.1c0,0,0-0.1,0-0.1
				c0-0.1,0-0.1,0-0.2c0,0.1,0,0.1,0,0c0-0.1,0-0.1,0.1-0.2c0.2-0.5-0.2-1.1-0.6-1.3c-0.5-0.2-0.9,0.2-1.1,0.7c-0.3,1,0,2.2,0.7,2.8
				C34.9,37.8,35.4,37.9,35.7,37.4z"/>
			<path class="st3" d="M48.7,50.6c-0.5,0.1-0.7,0.7-0.6,1.3c0.1,0.6,0.6,0.8,1.1,0.7c0,0,0,0,0,0c0,0,0,0,0,0c0,0,0,0,0,0
				c0,0,0.1,0,0.1,0.1c0,0,0,0,0,0c0,0,0,0,0,0c0,0,0,0,0,0c0,0,0,0,0,0c0,0,0,0,0,0c0,0,0,0,0,0c0,0,0,0,0,0c0,0.6,0.4,1,0.9,1
				c0.5,0,0.9-0.5,0.9-1C51.1,51.3,49.9,50.3,48.7,50.6z"/>
			<path class="st3" d="M30.7,52.6c0,0-0.1,0-0.1,0c0,0,0,0,0,0c0,0,0,0,0,0c0,0,0,0,0,0c0,0,0,0,0,0c0,0,0-0.1,0-0.1
				c0-0.6-0.4-1-0.9-1c-0.5,0-0.8,0.5-0.9,1c-0.1,1.2,0.9,2.4,1.9,2.2c0.5-0.1,0.9-0.4,0.9-1C31.6,53.2,31.2,52.6,30.7,52.6z
				 M30.6,52.6C30.6,52.6,30.6,52.6,30.6,52.6C30.6,52.6,30.6,52.6,30.6,52.6C30.6,52.6,30.6,52.6,30.6,52.6z M30.5,52.6
				C30.5,52.6,30.5,52.6,30.5,52.6C30.5,52.6,30.5,52.6,30.5,52.6z"/>
			<path class="st3" d="M57.9,34.4C57.9,34.4,57.9,34.4,57.9,34.4C57.8,34.5,57.9,34.4,57.9,34.4C57.9,34.4,57.9,34.4,57.9,34.4
				c0.1,0,0.1,0,0.1,0c0,0,0,0,0,0c0,0,0,0,0,0c0,0,0,0,0,0c0.1,0,0.1,0,0,0c0,0,0,0,0,0c0.4,0.3,0.9,0.4,1.2,0
				c0.3-0.4,0.4-1.1,0-1.4c-0.8-0.8-1.8-0.8-2.6,0c-0.4,0.4-0.3,1.1,0,1.4C57,34.8,57.5,34.7,57.9,34.4z M58.1,34.4
				C58.1,34.4,58.1,34.4,58.1,34.4C58.1,34.4,58.1,34.4,58.1,34.4C58.1,34.4,58.1,34.4,58.1,34.4z M57.9,34.4
				C57.9,34.4,57.9,34.4,57.9,34.4C57.9,34.4,57.9,34.4,57.9,34.4C57.9,34.4,57.9,34.4,57.9,34.4z"/>
			<path class="st3" d="M58.4,39.3c-0.3-0.3-0.2-0.8-0.1-1.2c0.2-0.5-0.2-1.1-0.6-1.3c-0.5-0.2-0.9,0.2-1.1,0.7
				c-0.3,1.1-0.1,2.3,0.6,3.2c0.3,0.4,0.9,0.4,1.2,0C58.7,40.3,58.7,39.7,58.4,39.3z"/>
			<path class="st3" d="M58.5,42.1c-0.4,0.3-0.6,0.9-0.3,1.4c0.4,0.6,0.5,1.2,0.3,2c-0.4,1.3,1.3,1.8,1.7,0.5
				c0.3-1.2,0.2-2.5-0.5-3.5C59.4,42,58.9,41.8,58.5,42.1z"/>
			<path class="st3" d="M63.6,31.7c-0.5-0.1-0.9,0.1-1.1,0.7c-0.1,0.5,0.1,1.2,0.6,1.3c0.1,0,0.2,0.1,0.3,0.1c0,0,0,0,0,0
				c0.1,0,0.1,0.1,0.2,0.1c0,0,0,0,0,0c-0.1,0.4,0.1,1,0.4,1.2c0.4,0.3,0.9,0.1,1.2-0.4c0.1-0.1,0.2-0.3,0.3-0.4
				c0.2-0.3,0.2-0.8,0-1C65.2,32.5,64.5,31.9,63.6,31.7z"/>
			<path class="st3" d="M63.6,37.9C63.5,37.8,63.5,37.8,63.6,37.9c-0.1,0-0.2-0.1-0.2-0.1c0,0,0,0,0,0c0,0-0.1-0.1-0.1-0.1
				c0,0,0,0,0,0c0,0,0-0.1-0.1-0.2c0-0.1,0-0.2,0-0.2c0.1-0.6-0.4-1-0.9-1c-0.5,0-0.8,0.5-0.9,1c-0.1,1.2,0.6,2.4,1.6,2.6
				c0.5,0.1,0.9-0.2,1.1-0.7C64.3,38.6,64,38,63.6,37.9z"/>
			<path class="st3" d="M63.3,42.5C63.3,42.5,63.3,42.5,63.3,42.5c0.2-0.5,0-1.1-0.4-1.3c-0.4-0.3-0.9-0.1-1.2,0.4
				c-0.6,1.1,0,2.8,1.1,3c0.5,0.1,0.9-0.1,1.1-0.7C64,43.3,63.8,42.6,63.3,42.5z M63.2,42.5C63.3,42.5,63.3,42.5,63.2,42.5
				C63.3,42.5,63.3,42.5,63.2,42.5z M63.2,42.5C63.2,42.4,63.2,42.4,63.2,42.5L63.2,42.5z M63.3,42.6C63.3,42.6,63.3,42.6,63.3,42.6
				C63.3,42.6,63.3,42.6,63.3,42.6z"/>
			<path class="st3" d="M62,30.1c0.4-0.1,0.7-0.6,0.6-1.1c0,0,0,0,0,0c0.2,0,0.3-0.1,0.5-0.3c0.2-0.2,0.3-0.5,0.3-0.7
				c0-0.5-0.4-1.1-0.9-1c-0.3,0-0.5,0.1-0.7,0.2c-0.2,0.1-0.4,0.4-0.5,0.6c-0.3,0.5-0.4,1-0.3,1.6C61,30,61.5,30.3,62,30.1z
				 M62.6,29C62.6,29,62.6,29,62.6,29C62.6,29.1,62.6,29.1,62.6,29z M62.6,29C62.7,29,62.7,29,62.6,29L62.6,29z M62.6,29
				C62.6,29,62.6,29,62.6,29c0,0-0.1,0-0.1,0C62.5,29,62.5,29,62.6,29z"/>
			<path class="st3" d="M65,27.6c0.2,0.5,0.8,0.6,1.2,0.4c0.4-0.3,0.5-0.9,0.3-1.4c-0.2-0.4,0-0.9,0.2-1.2c0.8-1-0.5-2.4-1.2-1.4
				C64.6,24.9,64.5,26.3,65,27.6z"/>
			<path class="st3" d="M67.5,23.6C67.5,23.6,67.6,23.6,67.5,23.6c0.1,0,0.1,0,0.1,0c0,0,0,0,0.1,0c0,0,0.1,0.1,0.1,0.1c0,0,0,0,0,0
				c0,0,0.1,0.1,0.1,0.1c0,0,0,0,0,0c0,0.1,0.1,0.2,0.1,0.2c0.2,0.5,0.8,0.6,1.2,0.4c0.4-0.3,0.5-0.9,0.3-1.4
				c-0.4-0.9-1.2-1.5-2.1-1.5c-0.5,0-0.9,0.5-0.9,1C66.6,23.2,67,23.6,67.5,23.6z"/>
			<path class="st3" d="M69.2,30.8c0.2-0.5-0.2-1.1-0.6-1.3c-0.5-0.2-0.9,0.2-1.1,0.7c-0.4,1-0.1,2.3,0.6,3c0.4,0.4,0.9,0.4,1.2,0
				c0.3-0.4,0.4-1.1,0-1.4C69.1,31.5,69.1,31.2,69.2,30.8z"/>
			<path class="st3" d="M67,37.3c0.2,0.4-0.1,0.7-0.4,0.7c-0.5,0.1-0.7,0.8-0.6,1.3c0.1,0.6,0.6,0.8,1.1,0.7
				c1.5-0.3,2.1-2.3,1.5-3.7C67.9,35.1,66.4,36.1,67,37.3z"/>
			<path class="st3" d="M36.1,27.9C36.1,27.9,36.1,27.9,36.1,27.9c-0.1,0-0.1,0-0.1,0c-0.1,0-0.1,0-0.1,0c0,0-0.3-0.1-0.2-0.1
				c-0.1-0.1-0.1-0.1-0.2-0.2c-0.1-0.1-0.1-0.1-0.1-0.2c-0.3-1.3-2-0.7-1.7,0.5c0.4,1.6,1.9,2.3,3.2,1.7c0.4-0.2,0.5-1,0.3-1.4
				C37,27.8,36.5,27.7,36.1,27.9z"/>
			<path class="st3" d="M40.4,26.9c-1.1,0.4-0.6,2.4,0.5,2c0.6-0.2,1.3-0.2,1.8,0.3c0.4,0.3,0.9,0.4,1.2,0c0.3-0.4,0.4-1.1,0-1.4
				C42.9,26.8,41.6,26.4,40.4,26.9z"/>
			<path class="st3" d="M41.3,24c1.1,0,1.1-2,0-2c0,0-0.1,0-0.1,0c0,0,0,0-0.1,0c0,0,0,0-0.1,0c-0.1,0-0.1-0.1-0.2-0.1
				c0.2,0.1-0.2-0.3-0.1-0.1c0,0,0-0.1-0.1-0.1c0,0,0-0.1-0.1-0.2c-0.1-0.5-0.6-0.9-1.1-0.7c-0.5,0.1-0.7,0.7-0.6,1.3
				C39.3,23.2,40.3,24,41.3,24z"/>
			<path class="st3" d="M42.5,18.9c0,0,0.1,0,0.1,0c0,0,0,0,0,0c0,0,0,0,0,0c0,0,0.1,0,0.1,0c0,0,0,0,0,0c0,0,0.1,0.1,0.1,0.1
				c0,0,0,0,0,0c0,0,0,0,0,0c0,0,0,0,0,0.1c0.1,0.5,0.6,0.9,1.1,0.7c0.5-0.1,0.7-0.7,0.6-1.3c-0.3-1.2-1.5-2.1-2.5-1.6
				c-0.4,0.2-0.7,0.7-0.6,1.3C41.6,18.7,42.1,19.1,42.5,18.9z"/>
			<path class="st3" d="M48.2,26.7c0.5,0.1,0.9-0.5,0.9-1c0-0.6-0.4-1-0.9-1c0.1,0,0.1,0,0.1,0c0,0,0,0-0.1-0.1c0,0,0,0,0,0
				c0,0,0,0,0,0c0,0,0,0,0-0.1c0,0,0,0,0,0c0,0,0-0.1,0-0.1c0,0,0,0,0-0.1c0,0,0,0,0,0c0,0,0,0,0-0.1c0,0,0,0,0,0c0,0,0,0,0,0
				c0.2-0.5,0.1-1.1-0.3-1.3c-0.4-0.3-1-0.1-1.2,0.4C45.9,24.8,46.8,26.5,48.2,26.7z"/>
			<path class="st3" d="M48.1,24.2C48.1,24.2,48.1,24.2,48.1,24.2C48.1,24.2,48.1,24.2,48.1,24.2L48.1,24.2
				C48.1,24.2,48.1,24.2,48.1,24.2z"/>
			<path class="st3" d="M48.1,24.2C48.1,24.4,48.1,24.1,48.1,24.2L48.1,24.2z"/>
			<path class="st3" d="M50.3,20.9c0.5,0.2,1,0.7,1.2,1.3c0.2,0.5,0.6,0.9,1.1,0.7c0.4-0.1,0.8-0.7,0.6-1.3
				c-0.4-1.3-1.2-2.3-2.4-2.7C49.7,18.6,49.3,20.5,50.3,20.9z"/>
			<path class="st3" d="M54.3,25.2c0,0-0.1,0-0.1,0c0,0-0.1,0-0.1,0c-0.1,0-0.1-0.1-0.2-0.1c0,0,0,0,0,0c0,0,0,0,0,0
				c0,0-0.1-0.1-0.1-0.1c0,0,0,0,0,0c0,0,0,0,0-0.1c0,0,0-0.1-0.1-0.1c0-0.1,0-0.1,0-0.2c-0.1-0.5-0.6-0.9-1.1-0.7
				c-0.5,0.1-0.7,0.7-0.6,1.3c0.2,1.1,1,1.9,1.9,2.2c0.5,0.1,0.9-0.2,1.1-0.7C55,25.9,54.8,25.3,54.3,25.2z"/>
			<path class="st3" d="M58.2,17.6c-0.5,0-0.9,0.5-0.9,1c0,0.6,0.4,1,0.9,1c-0.2,0,0.3,0.1,0.1,0c0,0,0.1,0.1,0.1,0.1c0,0,0,0,0.1,0
				c0,0,0,0,0,0c0,0,0.1,0.1,0.1,0.1c0,0,0,0,0,0c0,0,0,0,0,0.1c0,0,0,0.1,0.1,0.1c0-0.1,0,0.1,0,0.2c0.1,0.5,0.6,0.9,1.1,0.7
				c0.5-0.2,0.7-0.7,0.6-1.3C60.2,18.5,59.2,17.7,58.2,17.6z"/>
			<path class="st3" d="M63.2,19.4c0.3,0.5,0.8,0.7,1.2,0.4c0.4-0.3,0.6-0.9,0.3-1.4c-0.3-0.5-0.6-1-0.9-1.5
				c-0.3-0.5-0.8-0.7-1.2-0.4c-0.4,0.3-0.6,0.9-0.3,1.4C62.6,18.4,62.9,18.9,63.2,19.4z"/>
			<path class="st3" d="M58.8,25.2c0.5-0.1,0.7-0.8,0.6-1.3c-0.1-0.5-0.5-0.7-0.9-0.7c0-0.5-0.4-0.9-0.9-0.9c-0.5,0-0.9,0.5-0.9,1
				c0,0.5,0.2,1.1,0.5,1.4C57.8,25.2,58.3,25.3,58.8,25.2z M58.6,23.3C58.6,23.5,58.6,23.4,58.6,23.3L58.6,23.3z M58.6,23.3
				C58.6,23.3,58.6,23.3,58.6,23.3C58.6,23.3,58.6,23.3,58.6,23.3z M58.4,23.2C58.4,23.2,58.4,23.2,58.4,23.2
				C58.4,23.2,58.4,23.2,58.4,23.2C58.4,23.2,58.4,23.2,58.4,23.2z"/>
			<path class="st3" d="M47.5,19.2c0.3-0.1,0.6-0.1,0.9-0.2c0.5-0.1,0.7-0.8,0.6-1.3c-0.1-0.6-0.6-0.8-1.1-0.7
				c-0.3,0.1-0.6,0.1-0.9,0.2c-0.5,0.1-0.7,0.8-0.6,1.3C46.5,19,47,19.3,47.5,19.2z"/>
			<path class="st3" d="M51.4,28.6c-0.2-0.5-0.8-0.6-1.2-0.4c-0.2,0.1-0.3,0.4-0.4,0.6c-0.1,0.3,0,0.5,0.1,0.8
				c0.1,0.3,0.4,0.6,0.6,0.8c0.4,0.2,0.7,0.3,1.1,0.2c0.5-0.1,0.7-0.8,0.6-1.3c-0.1-0.3-0.2-0.5-0.4-0.6
				C51.7,28.7,51.6,28.6,51.4,28.6C51.4,28.6,51.4,28.6,51.4,28.6z M51.3,28.6C51.3,28.6,51.3,28.7,51.3,28.6c0,0-0.1,0-0.1,0
				C51.3,28.7,51.3,28.7,51.3,28.6z"/>
		</g>
	</g>
</g>
</svg>
